<svg id="Layer_1" data-name="Layer 1" xmlns="http://www.w3.org/2000/svg" xmlns:xlink="http://www.w3.org/1999/xlink" viewBox="0 0 1435.5 915.67"><defs><style>.cls-1,.cls-23,.cls-29,.cls-30,.cls-9{fill:none;}.cls-2{fill:#f0f7f2;}.cls-3{fill:#0f1923;}.cls-4,.cls-8{fill:#eed8cc;}.cls-10,.cls-23,.cls-4,.cls-9{stroke:#716256;}.cls-23,.cls-24,.cls-25,.cls-4,.cls-9{stroke-linecap:round;}.cls-23,.cls-24,.cls-25,.cls-4{stroke-linejoin:round;}.cls-27,.cls-5{fill:#736578;}.cls-5{stroke:#645b69;}.cls-10,.cls-29,.cls-30,.cls-5,.cls-9{stroke-miterlimit:10;}.cls-6{fill:#d7bfb2;}.cls-7{fill:#645b69;}.cls-10{fill:#faf9f5;}.cls-11{fill:#a97959;}.cls-12{fill:#9c6d52;}.cls-13{fill:#b28267;}.cls-14{fill:#fbfdfe;}.cls-15{fill:#ddeff1;}.cls-16{fill:#92c3c3;}.cls-17{fill:#9c9b9b;}.cls-18{fill:#fff;}.cls-19{fill:#172a32;}.cls-20{clip-path:url(#clip-path);}.cls-21{fill:#0d5f61;}.cls-22{fill:#010101;}.cls-24{fill:#676767;}.cls-24,.cls-25{stroke:#010101;}.cls-25{fill:#304050;}.cls-26{fill:#162430;}.cls-28{fill:#16212c;}.cls-29,.cls-30{stroke:#3e4156;}.cls-29{stroke-width:5px;}.cls-30{stroke-width:8px;}.cls-31{fill:#e7cee5;}.cls-32{fill:#b296c6;}.cls-33{font-size:36px;fill:#c6c5dd;font-family:OpenSans, Open Sans;}</style><clipPath id="clip-path" transform="translate(148.24 89.65)"><path id="left-eye-base" class="cls-1" d="M1006.59,245.58c13.17-3.18,28.28,5.42,27.81,10.46-.46,5.27-17.66,7.28-18.59,7.44-9.3,1-23.4-.16-24.56-5.27C990.32,254,998.53,247.52,1006.59,245.58Z"/></clipPath></defs><g id="background"><rect id="background-light" class="cls-2" x="917.45" y="139.77" width="518.05" height="587.08"/><rect id="background-dark" class="cls-3" x="797.33" y="58.12" width="594.65" height="673.18"/></g><g id="body"><path id="neck" class="cls-4" d="M966.77,547.72c30.29,17,65.85,5.19,79.79.54,27.12-9.06,44-25.17,52.22-33.23a155.58,155.58,0,0,0,37.88-59.89,65.18,65.18,0,0,1-10.22-9.76c-26.5-30.83-17.74-76.15-14.88-89-.93,6-7.82,45.16-43.23,66.16a89.1,89.1,0,0,1-45.94,12h-.23a177.93,177.93,0,0,0-54,1.08,181.16,181.16,0,0,0-40.83,12.32C921,490.7,936.71,530.76,966.77,547.72Z" transform="translate(148.24 89.65)"/><path id="shirt" class="cls-5" d="M794,560.81c58.87,47.8,108.38,59.12,142.78,60.51,104,4.42,166.79-75.54,272.46-54.46,28.75,5.73,50.59,17.74,64,26.34-.78-9.92-6.9-74.76-62.21-113.5-29.37-20.53-59.42-24.48-74.61-25.41a125.18,125.18,0,0,1-8.52,21.85c-17.59,34.94-47,51.83-56.32,56.94-15.26,8.52-71.35,39.74-110.87,11.62-26-18.52-30.13-52.14-31.06-63.14-13.09-.62-59.11-1.16-98.86,31.61A140.68,140.68,0,0,0,794,560.81Z" transform="translate(148.24 89.65)"/><path id="neck-shadow" class="cls-6" d="M1099.24,392.47c5.43,39.43,4.11,69.41,1.71,79.64-1.16,4.8-6.28,21.15-6.82,22.85a34.75,34.75,0,0,1-1.86,5.12,22.75,22.75,0,0,0-2.4,4.95c-.23.93-.39,1.79-.54,2.56a33.42,33.42,0,0,0-.31,4.11c-.31,2.71-1.4,3-2.4,6.5-.78,2.48-.39,2.95-.86,4.81-.62,2.4-4.57,6.66-5.65,7.51-65.23,49-116.29,15-116.29,15-30.52-20.3-45.32-59.26-36.56-97.22a177.09,177.09,0,0,1,55.54-14.88c31.07-2.94,45.09,4.34,67.33-2.32C1062.83,427.33,1081,418.11,1099.24,392.47Z" transform="translate(148.24 89.65)"/><path id="shirt-shadow" class="cls-7" d="M920.36,529.59a41.28,41.28,0,0,1,2.87,5.58c.93,3.18-.31,4,.77,5.89,1.24,2.17,3,1.47,5.35,4.1,1.7,1.86,1.08,2.41,2.79,4.34,2.24,2.4,3.48,1.79,5.34,4.11,1.79,2.17.86,3,2.56,4.57,1.86,1.7,3.18,1,5.11,3.1,1.17,1.16,1.09,1.86,2.33,2.56,1.47.85,2.09.15,3.56.77,1.16.47,2.25,1.94,4.34,4.8,1,1.4,1.55,2.17,2.4,2.25s1.09-.62,2.25-1c1.86-.69,4.41,0,4.8,1.17.31.85-.7,1.62-.31,2s1.71-.47,3.41-.31c1.16.08,1.39.7,3.41,1.86s4.49,2.71,6,1.86c1-.54.86-1.71,1.71-1.86s1.16,1,2.55,1.55c1.17.46,1.48-.16,4.11-.31s2.71.23,4.42-.16c1.31-.31,1.39-.69,2.55-.85a10.46,10.46,0,0,1,3.57.31c5.27,1,6.12.78,6.66.31.85-.62.54-1.08,1.39-1.55,1.48-.77,2.72.78,4.42.16,1.16-.39.93-1.17,2.4-1.71,1.09-.46,1.32-.08,2.56-.54,1.47-.46,1.39-1.08,2.55-1.39,1.4-.39,1.71.38,3.1,0s1.24-1.09,2.72-1.71,2.24.08,3.25-.7.7-1.7,1.7-2.24,1.55.23,3.1,0,1.32-1,3.26-1.71c1.78-.69,2.09-.15,3.4-.85s1.32-1.47,2.41-1.7,1.78.62,2.86.31a3.46,3.46,0,0,0,2-1.86,15,15,0,0,1,10.61-6.12c2.17-.16,2.79.54,4.11-.16,1.78-1,1.24-2.79,2.86-5,1.79-2.32,3.18-1.24,6.12-3.72,2.33-1.93,1.71-2.78,4.57-5.65,1.94-1.94,2.64-1.86,4.27-3.56a17.41,17.41,0,0,0,3.56-5.43,113.65,113.65,0,0,1-50.51,23.55c-14.72,2.72-44.55,8.22-68.41-11.07-25-20.15-25.26-52.84-25.26-58.11-5.88.54-11.77,1-17.66,1.55,1.39,23.32,1.16,32.07.23,34.32a8,8,0,0,0-.54,2.33C918,525.49,918.81,526.8,920.36,529.59Z" transform="translate(148.24 89.65)"/></g><g id="head"><g id="face"><path id="face-fill" class="cls-8" d="M1155.64,249.92c0-.31-.07-.54-.07-.93a56.33,56.33,0,0,0-2.79-14.41c-.08-.23-.08-.46-.16-.77-.15-.86-1.39-6.51-6.5-9.07a10.29,10.29,0,0,0-4.58-1.08,10.73,10.73,0,0,0-5.5,1.39l-.77.39c-.47.15-.85.23-1.32.39a203.65,203.65,0,0,0-8.6-41.06,189.16,189.16,0,0,0-11.23-27.58c-1.78-3.49-17.82-34.17-43.39-52.45-36.79-26.34-95.75-28.67-140.37-.62-41.84,26.26-54.47,68.95-57.49,80.49-.7,6.82-1.08,12.4-1.24,16.27-.39,7.51-.15,9.84-.31,13.48-.08,2.25-.23,3.87-.31,4.73-1,11.23-1.55,16.88-1.39,20,.54,9.46,3.87,12.24,4.1,24.56v2.95c-.07,2.24-.46,5.26-2,19.05-.47,4.34-.85,9-.93,13.95-.15,7.9.46,12.39,1,18.82,1.08,12.4,2.48,40.37,7.05,54.93,0,.08,0,.08.07.16,5.12,17.82,13.41,38,25.73,52.68,4.1,5.81,7.9,10.53,10.84,14,1.86,2.71,4.57,6.74,8,11.47A100.61,100.61,0,0,0,932,464.28a90.23,90.23,0,0,0,9.22,10.39,23.45,23.45,0,0,0,4.73,3.95c7.2,4.49,14.25,5,24.87,5.19,1.16,0,2.32.07,3.56,0h.31a115.69,115.69,0,0,0,22-1.94,105,105,0,0,0,12.55-3c.93-.23,1.71-.54,2.48-.78a36.29,36.29,0,0,0,4.65-1.7c19.68-7.44,36.64-20.07,56.71-35,1.08-.77,2.09-1.55,3.18-2.4h0c7.82-5.42,20.53-14.41,31.53-27.19,6.12-6.82,11-14.1,13.79-22,3.41-8.84,4.18-16.74,4.8-23.09h0c.54-4.26.62-6.12.62-6.12,0-1.55,0-4.57.15-8.29.08-1.32.08-2.63.16-4.11a115,115,0,0,1,1.7-15.57,49.72,49.72,0,0,1,2.64-7.51c.08-.08.08-.16.15-.24,2.56-4,6-5.42,8.52-7.2a15.11,15.11,0,0,0,3.26-3h0c2-2.48,3.48-5.73,5.81-10.62,5.27-11.31,5.73-21.45,6.43-40.13A107.07,107.07,0,0,0,1155.64,249.92Z" transform="translate(148.24 89.65)"/><path id="face-hair" class="cls-6" d="M1103.2,240.08c-2.17-.93-7.29-21-17.28-61.12h0c-9.22-30.76-38-70.19-75.15-80.42-44.39-12.32-101.25,16.81-133.17,73.91,2.24-7,6.58-16.27,12.47-27,8.45-15.42,19.83-24.48,28-31.07,36.56-29.28,78.86-29.67,84.13-29.67,10,.08,33.24.39,58.1,13.87,0,0,31.61,17.12,48.89,49.66,5.65,10.69,10.77,22.77,10.77,22.77,2.79,6.67,10.53,26.73,7.9,20.07h0c3.33,13.25,6.58,35.4,6.58,35.4h0C1134.57,226.6,1114,244.73,1103.2,240.08Z" transform="translate(148.24 89.65)"/><path id="face-outline" class="cls-9" d="M1156.19,250.69c0-.31-.08-.54-.08-.93a56.05,56.05,0,0,0-2.79-14.41c-.08-.23-.08-.46-.16-.77-.15-.85-1.39-6.51-6.5-9.06a10.14,10.14,0,0,0-4.57-1.09,10.66,10.66,0,0,0-5.5,1.4l-.78.38c-.46.16-.85.24-1.32.39a203.09,203.09,0,0,0-8.6-41.06A190.25,190.25,0,0,0,1114.66,158c-1.78-3.49-17.82-34.16-43.38-52.45-36.8-26.34-95.76-28.66-140.38-.62-41.84,26.27-54.46,69-57.49,80.5-.69,6.81-1.08,12.39-1.24,16.26-.38,7.52-.15,9.84-.31,13.48-.07,2.25-.23,3.88-.31,4.73-1,11.23-1.54,16.89-1.39,20,.54,9.45,3.87,12.24,4.11,24.56v2.94c-.08,2.25-.47,5.27-2,19.06-.46,4.34-.85,9-.93,13.94-.08,2.25,0,4.26.08,6.12.23,5.5.62,8.22,1,12.71,1,11.31,0,13.32,1.39,21.92.47,2.79,1,5,1.4,6.51a137.12,137.12,0,0,0,4.26,26.5c0,.07.23.85.46,1.7,6.59,24.25,22.78,47.57,25.34,51.13s6.12,8.45,10.84,14c1.86,2.71,4.57,6.74,8,11.46a100.64,100.64,0,0,0,8.52,12.63,90.25,90.25,0,0,0,9.22,10.38,23.45,23.45,0,0,0,4.73,3.95c7.2,4.49,14.25,5,24.87,5.19,1.16,0,2.32.08,3.56,0h.31a114.94,114.94,0,0,0,22-1.93,107,107,0,0,0,12.55-3c.93-.23,1.71-.54,2.48-.77a37.94,37.94,0,0,0,4.65-1.71c19.68-7.43,36.64-20.06,56.71-35,1.08-.78,2.09-1.55,3.18-2.4h0c7.82-5.43,20.53-14.41,31.53-27.2,6.12-6.81,11-14.1,13.79-22,3.41-8.83,4.18-16.73,4.8-23.09h0c.54-4.26.62-6.12.62-6.12,0-1.55,0-4.57.15-8.29.08-1.31.08-2.63.16-4.1a114.78,114.78,0,0,1,1.7-15.57,49.48,49.48,0,0,1,2.64-7.52c.08-.08.08-.15.15-.23,2.56-4,6-5.42,8.52-7.21a14.86,14.86,0,0,0,3.26-3h0c2-2.48,3.48-5.73,5.81-10.61,5.27-11.31,5.73-21.46,6.43-40.13A120.57,120.57,0,0,0,1156.19,250.69Z" transform="translate(148.24 89.65)"/></g><g id="mouth"><g id="mouth-grin"><path id="lower-lip" class="cls-6" d="M917.5,366.9c.93,6,4.64,24.48,20.6,36.18,23.55,17.28,53.38,4.88,62,1.32,5.27-2.17,18.67-8,26.26-20.92,2.25-4,5.35-10.77,4.19-11.54s-5.66,4.18-7,5.5c-15.95,16.5-68.09,31.14-83.51,14-4.11-4.57-7-13.09-18.52-21.69C919.82,368.45,918.43,367.52,917.5,366.9Z" transform="translate(148.24 89.65)"/><path id="teeth" class="cls-10" d="M919.2,367.52a71.74,71.74,0,0,1,10.38,9.22c6.35,6.82,7.9,11.23,10.54,14.41,9.45,11.23,32.15,7.36,41.52,5.73,23.17-4,39.2-16.73,47.42-24.4-16.74-6.51-29.44-6.28-37.89-5-17.89,2.87-26.11,12.32-39.2,7.67-5.73-2-9.45-5.73-18.9-7.36A47.11,47.11,0,0,0,919.2,367.52Z" transform="translate(148.24 89.65)"/></g></g><g id="beard"><g id="beard-grin"><path id="beard-base" class="cls-11" d="M1132.79,228.15a12.56,12.56,0,0,0-4,2.87c-6.43,6.66-5,20-5,20,.24,4.34.55,10.93.93,19.06.39,9.22.39,9.07.55,10.46.85,8.37,2.16,12.16,2,20.22-.08,2.4-.16,2.71-.23,4.88-.39,10.62,2.24,18.05,3.48,23.71a68.31,68.31,0,0,1-.46,31.3c-2.56,9.37-7.75,18.9-4.88,25.33a8.32,8.32,0,0,1,1,5.89c-.46,1.93-1.7,2.71-3.87,5.65-1.78,2.48-2.63,3.72-3,5.12-1.24,3.95.54,6.89-.85,7.74-1.09.7-2.64-1-3.57-.31-1.24.93,1.09,4.11.16,7.67-.85,3.33-3.49,2.48-5.66,6.67-1.62,3.17-.69,4.64-2.94,9.22a22.23,22.23,0,0,1-1.78,3,51.36,51.36,0,0,1-3.72,4.57c-4.18,4.8-5.58,5.11-7.13,7.9-2,3.56-.54,4.34-2.32,7.13-2.64,4.26-5.89,2.79-10,6.89-4.49,4.57-2.24,8.14-6.89,11.24-2.17,1.39-4.26,1.78-5.35,4.1-.93,2,0,3.18-1,4.34-1.79,2-5.58-.77-8.22,1-3.33,2.24-1.47,9.53-3.33,10-1.31.31-2.17-3.1-4.1-3.1-2.79,0-2.87,7.13-8.22,9.76-2.4,1.17-2.94-.07-5.34,1.32-4.11,2.25-4.34,6.66-7.13,6.9-1.63.15-1.86-1.32-3.56-1.17-2.87.16-3.1,4-6.66,5.81-3.1,1.48-4.34-.77-8.45.55s-4.26,4-7.44,4.1c-3,.08-3.64-2.32-6.43-2-3.1.31-3.17,3.33-6.66,4.1-3,.62-3.87-1.47-6.89-.77-3.18.7-3.1,3.18-5.89,3.56-3.26.47-4.81-2.79-7.44-1.93-2.32.77-2.79,4-4,3.71s-.54-3-2.48-4.88c-1.86-1.7-5.42-1.86-7.75-.62-1.93,1.09-2,2.56-3.25,2.56-1.55,0-2-2.48-5-5.65-1.7-1.79-3.79-4.11-5.81-3.72-2.71.46-3.49,5.57-4.57,5.34-1.39-.23.46-8.13-3.33-11-2.33-1.78-4.26.31-6.9-1.55-3.4-2.32-2.48-7.13-5.81-8.36-1.39-.55-2.09.15-3.25-.7s-1.39-2.25-1.86-5.12c-1.08-6-1.16-6.81-1.86-7.36-.85-.69-2.63-.92-6.43,1a47.8,47.8,0,0,0-2-11.77,18.79,18.79,0,0,0-2.79-5.89c-1.16-1.4-1.78-1.55-2.56-2.79-1.39-2.25-.62-3.87-1-6.66-.69-4.88-3.71-5.19-5.34-11.24-.39-1.31,0-.54-.78-5.65-1.62-10.93-3.1-13.09-4.64-14a6.08,6.08,0,0,1-2-1.63,6.51,6.51,0,0,1-1.32-3.57c-.38-4.57-2.24-8.9-2.63-13.48-.62-8.44-4.34-19.44-6.9-30.21a203.12,203.12,0,0,1-5.19-43.23c3.49,10.31,20,58.49,30.61,64.07.69.39,2.63,1.4,3.95.62.62-.39,3-2.32-2.71-21.92-4.65-15.89-8.22-21.54-5-27.66a13.26,13.26,0,0,1,4.8-5.19c8.14-4.5,18.91,3.95,27.74,7.51,24.87,10.15,39-13.48,78.79-10,12,1.08,26.49,2.32,33.54,13.17,9.45,14.56.62,38.89-2.4,38.89-.39,0-.62-.39-1.86-2.79a137.42,137.42,0,0,1-6-12.55c-2.79-7.28-19.37-12.47-34.87-12.16-24.87.46-30.68,14.72-45.78,9.22-6.12-2.25-10.85-6.59-21.93-8.14-5.11-.7-8.91-1.16-12.47.78-8.75,4.88-9.37,21.3-5.66,32.46,3.65,11,13.33,22.39,20,20.68,3.26-.85,5.35-4.49,5.81-5.34,3-5.27,1-10.69.7-11.55a46.5,46.5,0,0,0,6.58,3.33c17.9,7.44,35.8,2.64,44.78-.61-2.63,7.2-2.17,13.94,1.48,17,3.33,2.79,8.29,1.55,14.56-.39,5.73-1.7,25.72-7.74,31.53-25.41a34.35,34.35,0,0,0,1.47-7.43c22.94-7.05,55.94-21.77,65.31-50.52,2.56-7.9,1.86-21.46-.08-48.42-2.24-31.6-8-64.45-8-64.45s1.7-.31,5.11-1c13.17-2.63,15.73-3.72,20-3.1A24.76,24.76,0,0,1,1132.79,228.15Z" transform="translate(148.24 89.65)"/><path id="beard-dark" class="cls-12" d="M1130.54,329.33c2.33.46.86,18.59-.46,31.3a170.84,170.84,0,0,1-4.11,25c-.38,1.63-2.32,6.51-3.56,11.85-1.16,4.65-1.71,7-1.71,7.05,0,1.17.16,3-.85,3.57-.62.38-1.16-.16-1.86.15-1,.54-.62,2.09-1.16,4-.7,2.25-1.94,1.94-3.25,4.26-1.71,3.1-.16,4.65-1.86,7.13-1.4,2.09-2.71,1.24-4.11,3.1-2.71,3.56.47,8.91-1.7,10.38-1.4.93-3-.85-4.42.16-1.78,1.24-.08,4.57-2,6.27-1.32,1.16-2.56.23-3.72,1.4-2,1.93-.47,6.35-1.4,6.58-.62.16-1.16-1.78-2.17-1.78-.85,0-1.78,1.47-4.1,8.29-1.47,4.26-1.63,5-2.71,6.12-1.71,1.7-2.71.93-5.5,2.71-1.17.7-4.73,2.87-6.05,6.82-.77,2.48-.31,4.57-1.55,5.11-.77.39-1.24-.46-2.4-.39-2.4.16-4.65,3.49-5.5,6.28-.46,1.63-.46,2.87-1,2.94-.78.16-1.17-2.32-2.41-2.55-1.78-.39-4.26,3.72-6.12,6.89-2,3.33-2.55,5.11-4.18,5.35-1.32.23-1.7-.78-3.49-.78a6.7,6.7,0,0,0-5.26,3.33c-1.71,2.79-.31,5.43-1.79,6.28-.93.54-1.7-.47-4.1-.78-.23,0-5-.54-7.28,2.17-1.48,1.71-.93,3.41-2.33,3.95s-2.09-1-4.1-.93-2.48,1.48-5.51,3.49c-2.16,1.47-3.4,2.33-5.11,2.56-4.34.54-7.28-3-9-1.78-1.47,1.08.39,4.49-1,5.65-2.09,1.63-7.44-4.34-11.24-2.56-2.32,1.09-1.93,4.19-4.1,4.58-2.48.54-4.34-3.26-6.43-2.56-1.78.62-1.4,3.87-2.79,4.11s-2.09-3.1-5.66-5.35c-.46-.31-4.18-2.63-6.43-1.32s-1.62,6-2.55,6.12c-.78.08-.78-3-3.1-5.11a7.49,7.49,0,0,0-6.9-1.55c-2.71.85-2.71,3.18-4.34,3.33-3.56.31-6.27-9.91-9-9.45-1.78.31-2.17,4.73-3,4.65s-.39-3.41-1.79-7.13c-1.62-4.26-5.11-8-6.66-7.44s-.93,5.58-1.55,5.66-1.39-3.33-3.1-9.76c-1.31-4.88-1.93-7.21-3.33-7.44s-2.24,1.86-3.33,1.55c-1.86-.54.39-8.83-2-10-.78-.39-1.32.31-2.17-.16s-1.09-1.63-1.63-5.27c-.62-4-.54-4.1-.77-4.65-1.17-2.55-3-1.93-4.34-4.18-1.94-3.18.46-6.58-1.63-8.37-1.08-.93-1.78-.23-3-1-1.86-1.17-1.32-4-1.86-9.76-.7-7.52-2.25-8.91-3-9.46-1.4-.93-1.86-.15-3.1-1-2.71-1.94-.85-6.36-3.25-14.57-.16-.54-.08-.23-.7-2.24-1.24-3.8-2.48-7.91-3.72-12.4a344.16,344.16,0,0,1-12.09-73.44v.15c5.19,29.05,9.92,55.39,28,69.88,4.19,3.33,5.42,3.18,8.21,6.43,8.53,10,5.35,22.39,6.67,33.78,2.09,17.74,15.1,33.23,25.56,39.66,31.3,19.3,91-10.53,95.68-39.89,1.86-11.62-5.11-21.7,2-33,4.65-7.28,12.17-10.38,20.22-13.55,19.68-7.83,27.35-2.48,38.35-6.9C1125,380.15,1126.59,328.55,1130.54,329.33Z" transform="translate(148.24 89.65)"/><path id="beard-light" class="cls-13" d="M947.94,408.58h0c.23-.85,8.52,3.26,17.9,2.79,4.8-.23,17.74-2.09,19.83-2.4h.08c.85.15-.16,6.2.46,13.32.39,4.34.93,4.19.86,5.89-.39,7.28-10.85,16.43-21.93,16-14.87-.47-24.87-17.66-22.23-23.86C943.45,419,948.33,409.9,947.94,408.58Z" transform="translate(148.24 89.65)"/></g></g><g id="nose"><path id="nose-shadow" class="cls-6" d="M944.22,257.2a6,6,0,0,0-6.81,2.79c-3.34,13.64-6.51,24.25-8.84,31.69s-4,15.41-7,22.77c-2.32,5.81-3.79,8.6-3.48,13.1.46,5.81,3.56,10.07,7.82,14.95,4.42,5.11,7.59,8.75,13.17,10.53,3.56,1.17,9.53.16,9.37-.07-5.42-15.88-11.46-41.61-5.65-71.43a134.27,134.27,0,0,1,5.42-19.6A5.9,5.9,0,0,0,944.22,257.2Z" transform="translate(148.24 89.65)"/><path id="nose-outline" class="cls-9" d="M983,334.21c-19.21,13.09-34.79,20.06-39.05,19.75A25.89,25.89,0,0,1,939,353a13.55,13.55,0,0,1-4.65-3.33c-9.07-9.14-11.16-10.61-14.34-16-.38-.69-.62-1.08-.77-1.39-.7-1.47-2.94-7.28,3.25-20,.08-.08.08-.23.16-.23,2.94-5.81,7.36-20.45,14.49-53.53" transform="translate(148.24 89.65)"/></g><g id="mask"><path id="mask-base" class="cls-14" d="M1069,341.25q-52.1-29.87-104.1-59.81c-.39-.47-8.08-10.58-21-9.32s-18.34,12.62-18.66,13.16Q901,312.69,876.78,340.16a183.48,183.48,0,0,0,7.76,64.74c3.68,11.92,27,86.7,75.17,93.91,39.51,6,90.23-34.17,108-101.67Z" transform="translate(148.24 89.65)"/><path id="mask-shadow" class="cls-15" d="M943.25,308.49c.24,3.68,1.18,21.87,14.66,32.76,9.56,7.69,14.66,3,26.89,9.57,13.32,7.13,26.49,22.81,26.73,40.21s-12.54,30.18-17.09,34.8c-24.61,24.7-54.17,16.39-59.58,33.24-3.05,9.49,3.38,21.48,11.06,27.28,19.91,15.13,56.91-4.23,72-14.89,51.73-36.61,49.54-114.76,48.91-128.4-13.79-12.86-24.85-15.45-32.61-15.29-6.74.16-8.54,2.35-16.54,2-2.58-.08-17.95-.55-28.22-10.9-9.25-9.25-4.47-16.46-13.71-25.87-6.67-6.81-18.74-12.85-26.19-8.54S942.86,301.75,943.25,308.49Z" transform="translate(148.24 89.65)"/><path id="mask-outlet-shadow" class="cls-16" d="M913.23,369.87c-12.86,18.65-5.88,46,11.44,57.14,13.88,8.94,29.4,4.39,31.52,3.68,16.3-5,30.1-21.4,28.76-40.91a39.36,39.36,0,0,0-71.72-19.91Z" transform="translate(148.24 89.65)"/><circle id="mask-outlet" class="cls-15" cx="1089.84" cy="483.51" r="37.16"/><path id="mask-nose-clamp" class="cls-17" d="M934.32,297.12a26.58,26.58,0,0,0-3.92,7c-4.63,11.83-9.33,25.87-10.74,30.1,4.23-9.17,7.05-16.62,9-21.87s3.69-10.58,8.78-14.35a13.35,13.35,0,0,1,7.45-2.9c4.31-.08,7.6,2.59,9.33,4.16,13.56,11.91,37.15,36.53,37.15,36.53s2.28.86,3.37.23c.55-.31,1-1,1.1-3l-39.43-38.49c-.78-1-4.7-5.8-10.27-5.64S936.67,294,934.32,297.12Z" transform="translate(148.24 89.65)"/><path id="mask-band-right" class="cls-18" d="M871.53,334.59c1.41,1.1,11.05,9.09,11.21,22.34a29.05,29.05,0,0,1-5.88,17.64c.23,1.8.55,3.6.78,5.33a36.87,36.87,0,0,0,7.76-21C886,341.41,873,330.36,871.29,329,871.29,330.83,871.45,332.71,871.53,334.59Z" transform="translate(148.24 89.65)"/><path id="mask-band-left" class="cls-18" d="M1068.91,341.25q29.28-57.49,58.55-115.07c1.1,1.41,2.2,2.74,3.22,4.15l-61.61,115.94c-13.72.24-24.15,11.84-23.29,24.22.79,11,10.27,20.38,22.34,21,16.23,9,32.54,18,48.76,27-.78,1.65-1.57,3.37-2.35,5l-46.8-26.34a28,28,0,0,1,1.18-56Z" transform="translate(148.24 89.65)"/><path id="mask-breather" class="cls-19" d="M969.67,377.08a33.74,33.74,0,0,1,6,17.32,34.43,34.43,0,0,1-2.83,15.68,4,4,0,0,0,3.06,1.17c4.31-.78,5.1-13.71,5.18-15.28.62-10.19-1.73-23.67-6-24.07C973.82,371.75,972,372.69,969.67,377.08Z" transform="translate(148.24 89.65)"/></g><g id="wrinkles"><g id="wrinkles-smile"><path id="_Path_" data-name="&lt;Path&gt;" class="cls-9" d="M899.68,359.77a20.74,20.74,0,0,1-.7-9.06,21.83,21.83,0,0,1,6.28-12,24.49,24.49,0,0,1,6.66-5.19" transform="translate(148.24 89.65)"/><path id="_Path_2" data-name="&lt;Path&gt;" class="cls-9" d="M1001.55,324.76a65.21,65.21,0,0,0,7.75,7.74,66.52,66.52,0,0,0,8.44,6.05,105.21,105.21,0,0,0,10.85,5.81c5.66,2.63,7.44,2.86,11,5.42a21.53,21.53,0,0,1,5.19,4.49c3.88,4.81,4,10.93,3.8,14.18" transform="translate(148.24 89.65)"/></g></g><g id="ear"><path id="ear-shadow" class="cls-6" d="M1130.54,276.11c-.23-1.79-.62-4.27-.85-7.29-.54-5.58-.31-6.58.39-7.43,2-2.41,7.13-1.17,7.36-1.09,5.58,1.47,10.46,9.53,9.29,16.81-.61,4-3.33,9.76-7.28,10.07-3.33.24-6.12-3.33-6.27-3.56,0,0-.85-1.24-2.64-7.51Z" transform="translate(148.24 89.65)"/><path id="ear-outline" class="cls-9" d="M1141.31,263.4c.85.93,5.58,6.2,4.73,13.32-.47,4.27-3.1,10.77-7.28,11-3.65.15-8-4.27-8.91-11.08-2.48-14.1,4.72-38.27,9.91-37.73,2.64.23,4.57,3.33,5.27,4.57a21,21,0,0,1,2,13.79" transform="translate(148.24 89.65)"/></g><g id="eyes"><g id="left-eye"><path id="left-eye-base-2" data-name="left-eye-base" class="cls-18" d="M1006.59,245.58c13.17-3.18,28.28,5.42,27.81,10.46-.46,5.27-17.66,7.28-18.59,7.44-9.3,1-23.4-.16-24.56-5.27C990.32,254,998.53,247.52,1006.59,245.58Z" transform="translate(148.24 89.65)"/><g class="cls-20"><circle id="left-eye-iris" class="cls-21" cx="1165.51" cy="345.38" r="8.91"/></g><circle id="left-eye-pupil" class="cls-22" cx="1165.51" cy="345.54" r="4.65"/><circle id="left-eye-reflection" class="cls-18" cx="1168.61" cy="341.67" r="1.94"/><g id="left-lid"><path id="_Path_3" data-name="&lt;Path&gt;" class="cls-23" d="M1041.76,258.52c.62.46,13.56,5,19.45,2.09" transform="translate(148.24 89.65)"/><path id="_Path_4" data-name="&lt;Path&gt;" class="cls-23" d="M981,257.74a35.64,35.64,0,0,1,12.39-12.08c10.85-6.35,25.49-6.9,36.18-1.4,6.51,3.34,7.67,6.9,15.65,9.53a38.72,38.72,0,0,0,15.18,1.63" transform="translate(148.24 89.65)"/></g></g><g id="right-eye"><path id="right-eye-base" class="cls-18" d="M906.18,250.77c8,.23,16.89,5.27,16.82,10.07-.16,5.27-11.16,9.45-19.76,9.76-6.89.24-17-1.93-17.9-6.5C884.34,258.91,895.34,250.38,906.18,250.77Z" transform="translate(148.24 89.65)"/><circle id="right-eye-iris" class="cls-21" cx="1052.25" cy="351.2" r="8.91"/><circle id="right-eye-pupil" class="cls-22" cx="1052.25" cy="351.35" r="4.65"/><circle id="right-eye-reflection" class="cls-18" cx="1054.5" cy="347.63" r="1.94"/><path id="right-lid" class="cls-23" d="M922.14,251.86c-1.39-.86-14.33-8.84-28.2-3.1a29.53,29.53,0,0,0-13.55,11.62" transform="translate(148.24 89.65)"/></g></g><g id="eyebrows"><g id="left-brow"><path id="left-brow-shadow" class="cls-6" d="M970.87,234a20.62,20.62,0,0,1-9-8,21,21,0,0,1-2.79-13.79c17.12-1.08,30.91-2.4,40.28-3.33,12.48-1.24,18.29-1.63,27.82-1.55,17.27.16,27.42,2.48,33.77,10.07,4.57,5.5,5.74,12.09,6,16.43-4.42-.16-11-.62-19-1.71-8.52-1.16-8.76-1.7-15.73-2.71a141.35,141.35,0,0,0-33.47-.7c-5.65.54-10.07,1.47-15,2.4C978.54,232.18,974.13,233.19,970.87,234Z" transform="translate(148.24 89.65)"/><path id="left-brow-base" class="cls-11" d="M965.61,218.39a6.46,6.46,0,0,1-2.79-12.47c6.58-2.33,65.31-22,94.28,7.28a46.66,46.66,0,0,1,8,10.84A81.43,81.43,0,0,0,1040.6,212c-17.51-5.19-32.46-3-45.71-.93A154.39,154.39,0,0,0,965.61,218.39Z" transform="translate(148.24 89.65)"/></g><g id="right-brow"><path id="right-brow-shadow" class="cls-6" d="M924.47,237.6a18.72,18.72,0,0,0,4.41-6.35A19,19,0,0,0,930,220.64c-2.09-1.09-29.83-15.65-49.58-2.25a33.08,33.08,0,0,0-8.76,8.91,9.85,9.85,0,0,0-.54,7.67,8.73,8.73,0,0,0,2.56,3.56,62.64,62.64,0,0,1,22.54-5.73A63.37,63.37,0,0,1,924.47,237.6Z" transform="translate(148.24 89.65)"/><path id="right-brow-base" class="cls-11" d="M929,227.14a14.23,14.23,0,0,0,1-6.43,13.21,13.21,0,0,0-2.09-6.27c-3.18-1.4-26.58-11.39-43-3.72-3.8,1.78-10.77,5-12.86,11.93a15.36,15.36,0,0,0-.54,6.27,39.68,39.68,0,0,1,13.94-8.9C906.34,212.27,926.17,225.21,929,227.14Z" transform="translate(148.24 89.65)"/></g></g><path id="glasses" class="cls-24" d="M1129.77,219.4a8,8,0,0,0-1.16-.47c-3-.85-5.74.62-6.74.78-13.95,2.71-21.93,5.65-35.49,8.67-1.08.23-2.71.62-4.64,1a16.19,16.19,0,0,0-3.34-1.08,21,21,0,0,0-2.47-.31c-3-.31-4.34.46-8.37,1.31a41.27,41.27,0,0,1-8.91,1.24c-2.63,0-3.1-.39-9.45-1.16-2.71-.31-3.8-.39-7-.78-9.38-1-11.24-1.47-16.19-1.93a137.6,137.6,0,0,0-25.18,0,152.75,152.75,0,0,0-26.27,4.57c-15.18,3.72-18.2,6.51-20,8.6-2.09,2.55-2.71,4.72-5.66,6,0,0-5.11,2.25-12.86-1.32a19.82,19.82,0,0,1-4-2.4c-3.56-2.71-10.77-5.58-26.49-7a171.91,171.91,0,0,0-24.25.23,183.18,183.18,0,0,0-27.89,4.34,30.7,30.7,0,0,1-3.64,2.17,24.15,24.15,0,0,1-9.84,2.32s-4.65,8.06,1.24,12.17a12,12,0,0,1,5.5,10.22s1.78,21.85,11.85,34.56,50.67,7.05,50.67,7.05c3.18-.08,9.22-.7,13.71-5a19,19,0,0,0,4.88-8.21c7.13-21.15,5.89-32.46,12.47-35.56,3.41-1.63,7.6-.47,9.92,1.08,2.64,1.71,2.09,3.25,6.28,11.7,0,0,3.25,6.58,8.13,14.25.78,1.24,1.47,2.25,2.09,3.18,1.4,2.09,3.1,4.57,4.34,6.2a27.32,27.32,0,0,0,7.67,6.43c3.25,2,7.83,3.79,18.67,4.41,11.24.7,19.6-.69,36.34-3.4a66.5,66.5,0,0,0,11.31-3.41,8.93,8.93,0,0,0,2.63-1.4,10.42,10.42,0,0,0,2.79-3,32.86,32.86,0,0,0,6.35-14.41c3.18-17-.31-27.42.31-36.41.16-2.87,9.38-5.5,15.73-5.89A14.85,14.85,0,0,0,1077,238c2-.85,2.4-2.33,4.65-3.41a9.8,9.8,0,0,1,3.17-.85c3.8-.54,11.39-2.4,25.88-6,8-1.94,11-3.18,14.18-1.32a9.65,9.65,0,0,1,3.87,4.8c2.09-1.39,4.18-2.79,6.35-4.18C1134.65,225.28,1133.1,221,1129.77,219.4ZM928.19,282.15c-3.18,9.84-4.81,15.18-9.69,18.9-3.64,2.79-10.46,3.25-24.09,3.87-23.09,1.09-28-2.24-30.68-4.8-1.94-1.78-3-3.72-5.27-7.67a51.38,51.38,0,0,1-6.82-18.59c-.93-5-2.09-10.85-.62-18.36a29,29,0,0,1,1.4-5.27c6.89.46,13.71,1,20.61,1.47-.24-.62-.39-1.32-.62-1.94a15.52,15.52,0,0,1-.62-2.16c-1.24-.08-2.87-.08-4.88-.24-7.75-.38-11.62-.62-11.7-1.16-.23-1.32,8.13-4.57,16.58-6.2,5.42-1.08,9.37-1.16,16.27-1.31,16.73-.39,24.55,1.39,26.65,1.86,7,1.47,12.47,3.56,14.72,8a25.36,25.36,0,0,1,1.55,5,32.39,32.39,0,0,1,.62,9.61A118.16,118.16,0,0,1,928.19,282.15Zm125.19-13.95a64,64,0,0,1-.62,11.08,32,32,0,0,1-1.39,6.66,27.24,27.24,0,0,1-2.71,5.5c-5.27,8.22-27.89,9.92-35,10.46a100,100,0,0,1-15.26.08c-7-.54-11.78-.85-16.89-3.72a32.12,32.12,0,0,1-9.61-8.52h0a58.64,58.64,0,0,1-7.75-12.24c-3.25-6.74-10.3-21.15-7.12-30.29a16.33,16.33,0,0,1,4-6.28,15.64,15.64,0,0,1,4.58-2.63c14.1-5,33.62-6.66,33.62-6.66,9.06-.78,14.33-.86,16-.86,5-.07,9.68.16,13.94.39,5,.31,13.48,1.71,17.51,7.83a24.63,24.63,0,0,1,1.86,3.79c2.25,5.27,2.94,9.53,3.8,15A92,92,0,0,1,1053.38,268.2Z" transform="translate(148.24 89.65)"/><g id="cap"><path id="cap-shadow" class="cls-6" d="M872.87,198c12-19.83,25.72-31.06,37-37.73,55.93-33.23,145.26-9,222.88,60.51a52.29,52.29,0,0,0-.54-10.23c-11.62-70.65-188-131.16-241.63-75.22C882.17,144.09,871.09,161.68,872.87,198Z" transform="translate(148.24 89.65)"/><path id="cap-base" class="cls-25" d="M872.79,201.19c.31-11,2.72-34.17,19.68-53.15,24.41-27.27,61.44-26.34,77.63-25.95,21.38.54,36,6.2,57.79,14.64,0,0,42.92,16.66,86.31,56.33a69.27,69.27,0,0,1,10.61,11.77c7.67,11.16,9.37,21.85,10.69,21.54.93-.23-.23-5.89.23-16.43.39-9.14,1.48-8.05,1-12.39-.77-7.75-4.49-14.8-7.51-20.53-.7-1.32-1.32-2.4-1.71-3.1a59.26,59.26,0,0,0,.54-9.37c-.23-16.27-6.74-29.06-11.62-36.65-11.23-15.8-29.67-35.79-57.48-47.72-13.09-5.58-24.25-7.67-33.93-9.45-14.26-2.64-37.19-6.36-64.92.15A140.26,140.26,0,0,0,911.38,93a102.38,102.38,0,0,0-43.23,23.47c-7.75,7.21-25,23.24-25.49,45.17v.93C847.31,181.74,866.6,192,866.6,192,868.61,195.07,870.7,198.09,872.79,201.19Z" transform="translate(148.24 89.65)"/><path id="cap-highlights" class="cls-26" d="M1072.75,159.74A316.85,316.85,0,0,0,1033,132.63a338.17,338.17,0,0,0-34.94-17.43c-9.69-4.11-25.88-11-39.05-13.64-49.5-10-109.16,28.28-108.61,54.15.07,4.88,2.4,12.86,1.62,13s-4.18-6.59-4.8-12.63c-1.47-14.41,12.32-26.8,19.44-33.08,27.35-24,61.52-26.8,66.17-27.11,29.2-1.94,50,7.28,81.42,21.22,27.89,12.4,45.47,25.57,79.25,50.82,7.36,5.5,13,10.08,19.14,17.2,16.19,19.14,22,41.37,23.47,40.83.85-.31-1.16-6.66-.31-17.66h0a38.49,38.49,0,0,0,.93-8.37c-.08-11.93-5.89-20.76-8.91-24.79-3.79-1.94-9.68-4.88-16.81-8.68-35.25-18.59-48.42-28.27-75.77-42.68-18.2-9.61-27.34-14.41-38.35-18.52-23.39-8.68-53.68-19.91-85.76-11.62-35.09,9.06-73.6,42-67.94,70.73,2.56,13.09,13.79,22.31,23.32,28.05,2,3,4.11,6,6.12,9,.85-30.91,12.32-46.79,18.52-53.69C923.38,112.1,999.23,112.25,1072.75,159.74Z" transform="translate(148.24 89.65)"/></g></g><path id="Shirt-2" data-name="Shirt" class="cls-27" d="M1084.67,561.87c-149.21,46.8-278.42-32.71-297.25,4-11.58,22.56,30.82,65.25,37,71.34C928.55,740,1159.55,728.63,1222.94,625.4c23.88-38.87,27.66-96.78,4.41-113.73C1201.72,493,1161.92,537.64,1084.67,561.87Z" transform="translate(148.24 89.65)"/><path id="upper_BG_continuation" data-name="upper BG continuation" class="cls-3" d="M1226.36,11c1.59-9.16-23.12-20.71-34.68-25.76-122.25-53.41-360-14.36-438.61,0L757,9c96.38,6.08,179.2,9.66,244.4,11.89C1177.71,26.9,1224.27,23,1226.36,11Z" transform="translate(148.24 89.65)"/><path id="White_BG" data-name="White BG" class="cls-28" d="M-100.36,98.17c6.55-76,7.38-105.73,32.7-135.75C-11-104.79,99.18-94,281.11-76.22,401.87-64.44,526.63-52.39,746.47-31.3q46.89,348.11,93.8,696.22a2160.28,2160.28,0,0,1-238.13,81.25C362.42,812.7,157.31,875.67,3.68,768-27.56,746.06-83,706.26-121.17,634.2-178.22,526.44-132.23,468.12-100.36,98.17Z" transform="translate(148.24 89.65)"/><path class="cls-29" d="M747.79-45.83Q796,328.69,844.23,703.23" transform="translate(148.24 89.65)"/><path class="cls-30" d="M0,0V630H0V0H1200V634" transform="translate(148.24 89.65)"/><g id="Logo"><path class="cls-31" d="M49.62,83.83a33.79,33.79,0,0,1,.8-7.2,30.94,30.94,0,0,1,2.5-6.6,24.9,24.9,0,0,1,3.7-5.8,28.59,28.59,0,0,1,4.6-4.6,21.13,21.13,0,0,1,5.5-3,18,18,0,0,1,6-1,9.1,9.1,0,0,1,5.6,1.5,5,5,0,0,1,2,4.2,7.61,7.61,0,0,1-.3,2.1,19.45,19.45,0,0,1-.8,2.2l-1.2,2-1.6,1.8a4.1,4.1,0,0,1-2.4-1.3,3.71,3.71,0,0,1-1.2-2.3,14.26,14.26,0,0,0,2.9-3.2,5.61,5.61,0,0,0,1-3c0-1.5-.9-2.2-2.8-2.2a7.66,7.66,0,0,0-2.5.4l-2.6,1.4a26.22,26.22,0,0,0-2.5,2.2,20.41,20.41,0,0,0-2.3,2.7q-7.2,10.35-7.2,21.3a14,14,0,0,0,1.2,6.2,4.93,4.93,0,0,0,3.2,2.7,18,18,0,0,0,5.6-2.8,69.64,69.64,0,0,0,7.5-6.1,2,2,0,0,1,.7,1c-1,1.3-2.1,2.6-3.2,3.9s-2.1,2.3-3.2,3.3a36.53,36.53,0,0,1-3,2.7,24.32,24.32,0,0,1-3,1.7c-4.3,0-7.5-1.2-9.7-3.7S49.62,88.43,49.62,83.83Z" transform="translate(148.24 89.65)"/><path class="cls-31" d="M84.52,95.83a6.41,6.41,0,0,1-4.7-2.6,9.13,9.13,0,0,1-1.8-5.8,13.33,13.33,0,0,1,.7-4.3,23.54,23.54,0,0,1,1.7-4.4,35.06,35.06,0,0,1,2.7-4,25.36,25.36,0,0,1,3.4-3.2,9.24,9.24,0,0,1,5.4-2.1,9.33,9.33,0,0,1,3.2,3.7h1q2.7,0,2.7,4.8a17.92,17.92,0,0,1-1,6.2,16.23,16.23,0,0,1-3,5.3,19,19,0,0,1-4.5,4A18.69,18.69,0,0,1,84.52,95.83Zm2.7-16.4L85.52,82a17.54,17.54,0,0,0-1.3,2.8l-1,2.8L83,90a6.72,6.72,0,0,0,.4,2.4c.3.7.6,1.2,1,1.3a13.52,13.52,0,0,0,4.2-2,11.75,11.75,0,0,0,3.4-3.6,15.22,15.22,0,0,0,2.2-4.8,21.39,21.39,0,0,0,.8-5.8l-.1-2.1a3.92,3.92,0,0,0-.5-1.3,10.67,10.67,0,0,0-4.1,2.1A23.25,23.25,0,0,0,87.22,79.43Z" transform="translate(148.24 89.65)"/><path class="cls-31" d="M112.72,69.63a4.62,4.62,0,0,1,2.3.7,7.76,7.76,0,0,1,2.4,1.6l-.6-4a30.43,30.43,0,0,0-1.1-3.7,39.89,39.89,0,0,0-2-4.3c-.9-1.6-1.9-3.4-3.2-5.4a3,3,0,0,1,.7-1l1.3-1.3,1.4-1,1.5-.4a27.69,27.69,0,0,1,2.7,4,35.45,35.45,0,0,1,2.3,5.2,30,30,0,0,1,1.5,5.7,29.1,29.1,0,0,1,.6,5.7,27.38,27.38,0,0,1-.6,5.6c-.5,1.9-1,3.7-1.7,5.6a39.84,39.84,0,0,1-2.4,5.1,24.25,24.25,0,0,1-3,4.4,14.2,14.2,0,0,1-3.5,3.1,8.36,8.36,0,0,1-3.5,1.6,9,9,0,0,1-5.5-2.3,7.24,7.24,0,0,1-2-5.3,14.16,14.16,0,0,1,.6-3.8,41.4,41.4,0,0,1,1.5-4.1,30.47,30.47,0,0,1,2.1-4,33.2,33.2,0,0,1,2.6-3.6,22.14,22.14,0,0,1,2.8-2.6,7.37,7.37,0,0,1,2.8-1.4Zm-5.3,25.1a8.05,8.05,0,0,0,3.6-2.8,21.68,21.68,0,0,0,3.3-5,37.86,37.86,0,0,0,2.3-6.2,20.65,20.65,0,0,0,1-6.3v-1.1l-.1-.4a8.07,8.07,0,0,0-2.7,1.7c-.9.9-1.9,1.9-2.8,3a24.47,24.47,0,0,0-2.6,3.5,38.46,38.46,0,0,0-2.3,3.8,18,18,0,0,0-1.5,3.7,9.89,9.89,0,0,0-.6,3.1A2.71,2.71,0,0,0,107.42,94.73Z" transform="translate(148.24 89.65)"/><path class="cls-31" d="M142.52,72.43a20.31,20.31,0,0,1-1.2,5.6,14.08,14.08,0,0,1-2.7,4,15.52,15.52,0,0,1-4.2,3.2c-1.7.9-3.6,1.8-5.8,2.7v2.7A5.73,5.73,0,0,0,129,92l.7,1a1.59,1.59,0,0,0,1.2.4,7.06,7.06,0,0,0,2.8-.6,21.28,21.28,0,0,0,2.5-1.6,15,15,0,0,0,2.3-2l2-1.9.8.9a22.93,22.93,0,0,1-5.1,5.2,16.19,16.19,0,0,1-5.3,2.6,8.45,8.45,0,0,1-5.6-2.6,8,8,0,0,1-2-5.4,17.09,17.09,0,0,1,.6-4.3,22.37,22.37,0,0,1,4.2-8.1,15.36,15.36,0,0,1,3-3.2,15.68,15.68,0,0,1,3.4-2.1,9.31,9.31,0,0,1,3.5-.8,7,7,0,0,1,4.5,3Zm-3.6,1.8a8.51,8.51,0,0,0-3,1.1,16.22,16.22,0,0,0-2.8,2.5,22.55,22.55,0,0,0-2.4,3.6,30,30,0,0,0-1.7,4.5,20,20,0,0,0,6.9-5.1A10,10,0,0,0,138.92,74.23Z" transform="translate(148.24 89.65)"/><path class="cls-31" d="M141,111.23c-.5-.1-.7-.7-.8-1.6l-.3-1.6v-2.1a21.27,21.27,0,0,1,.3-3l1-4.3,1.6-5.2,2.1-5.6,2.4-6.2,1.8-4.6,1.1-3.2.7-2,.7-1.6,1-1.8,1-1.7,1-1.2a10.13,10.13,0,0,1,3.5,1,4.28,4.28,0,0,1,2,1.2,24.93,24.93,0,0,0-1.7,2.1,15.72,15.72,0,0,0-1.8,3.1,37.27,37.27,0,0,0-1.6,3.5l-1.1,3.1,1.3-2,2.6-2.8a21.89,21.89,0,0,1,3.6-3,5.61,5.61,0,0,1,3-1,4.72,4.72,0,0,1,3.2,1,3.41,3.41,0,0,1,1.3,2.8,21,21,0,0,1-1.3,7.4,20.66,20.66,0,0,1-3.6,6.7,12.91,12.91,0,0,1-2,2.1l-2.5,1.9a15.77,15.77,0,0,1-2.6,1.3,6,6,0,0,1-2.2.4,3.06,3.06,0,0,1-1.7-.4,1.65,1.65,0,0,1-1-1,13.24,13.24,0,0,0,4-3.3,23.91,23.91,0,0,0,3.6-4.9,33.2,33.2,0,0,0,2.8-6,30.19,30.19,0,0,0,1.9-6.5,31.31,31.31,0,0,0-3.6,2.2,32,32,0,0,0-3.1,3.2l-3,3.7-1.8,2.4a13,13,0,0,0-1.1,1.9l-1,2-1.7,4.5-2,6-2,7.3-2,7.6a1.77,1.77,0,0,1-1-.8l-.5-.7Z" transform="translate(148.24 89.65)"/><path class="cls-31" d="M184.92,92.83a3.36,3.36,0,0,1-1.3-2,6.85,6.85,0,0,1-.4-2.2,5.82,5.82,0,0,1,.3-1.9,2.91,2.91,0,0,0-1,.9l-1.5,2a18.39,18.39,0,0,0-1.7,2.2l-1.3,1.6-1.3,1.1a1.87,1.87,0,0,1-1,.5,6.09,6.09,0,0,1-1.7-.3,8.86,8.86,0,0,1-1.7-.8,8.64,8.64,0,0,1-1.4-1.3,3.46,3.46,0,0,1-.8-1.6l.1-2.4a6.93,6.93,0,0,1,.3-2,44,44,0,0,1,1.4-4.5l2.1-5a33.5,33.5,0,0,1,2.7-4.5,19.74,19.74,0,0,1,3.1-3.3l1.1.1a2.77,2.77,0,0,1,1.3.3l1.3.5,1,.7-2.4,3.5a51.48,51.48,0,0,0-4.2,8.5l-.7,1.7-.7,2.3-.6,2.3-.2,1.9.1.6.3.3a8,8,0,0,0,2-1.7l3.3-4.3,1.2-1.7,1.4-2,1.4-2.2,1-2.3.6-1.5.8-1.8a7.61,7.61,0,0,1,1.2-1.9,6.55,6.55,0,0,1,1.5-1.8l1.5.2,1.4.4,1.3.5.7.6c-.6,1.5-1.3,3-2,4.5l-2.2,4.4a28.51,28.51,0,0,0-1.6,4.3,12.34,12.34,0,0,0-.7,4.2,11.08,11.08,0,0,0,.2,1.9l.4,1.3.3,1,.2.5v.2h-.2l-1-.1-1.2-.5-1.4-.6Z" transform="translate(148.24 89.65)"/><path class="cls-31" d="M204.92,68.73a6.18,6.18,0,0,1,2.5,1.9,9.23,9.23,0,0,1,1.8,3,29.36,29.36,0,0,1-1.8,3.4L205,81l-2.2,4a6.18,6.18,0,0,0-1,3l1.8-2,2-2.4,1.8-2.1,1.3-1.5,2.3-2.4a34.46,34.46,0,0,1,2.8-2.6,17.39,17.39,0,0,1,3-2,4.8,4.8,0,0,1,2.8-1,2.7,2.7,0,0,1,2.2,1,5.25,5.25,0,0,1,1.5,1.9l-.4.3c-.3.1-.6.5-1.1,1a23.61,23.61,0,0,0-1.7,2.6l-1.8,3.5c-.5,1.3-1,2.6-1.4,3.9a16.34,16.34,0,0,0-.5,3.6c0,.9.1,1.4.3,1.6a1.05,1.05,0,0,0,1,.4,2.61,2.61,0,0,0,1.1-.3l1-.2c.1,0,.3.1.4.4l.1.6-1,.7-1.2.7-1.2.5-1,.2a5.67,5.67,0,0,1-2.5-.4,3.09,3.09,0,0,1-1.5-1.2,3.37,3.37,0,0,1-.8-1.7,15,15,0,0,1-.2-2.2v-1.3l.5-1.8.9-2.6,1.5-3.5-1.5.7a12.73,12.73,0,0,0-2.8,2.2c-1.6,1.6-3.1,3.2-4.4,4.7s-2.7,3.2-4,5a16.93,16.93,0,0,1-2,2.8,6.94,6.94,0,0,1-1.4,1.5,4.55,4.55,0,0,1-1.6-1.8,5.72,5.72,0,0,1-.8-2.3,12.89,12.89,0,0,1,.3-2.5l.8-3.3,1.2-4,1.6-4a50.94,50.94,0,0,1,3.6-7.1c1.1-1.7,1.7-2.7,2.1-2.9Z" transform="translate(148.24 89.65)"/><path class="cls-31" d="M224.62,89.13a17.79,17.79,0,0,1,1-5.2c.7-2.2,1.5-4.6,2.5-7.3l3.5-8.2c1.3-2.8,2.7-5.4,4-7.8a43.33,43.33,0,0,1,3.9-6.3,13.24,13.24,0,0,1,3.1-3.6,2.9,2.9,0,0,1,1.6.6l1.6,1.4a6.57,6.57,0,0,1,1.2,1.7,3.68,3.68,0,0,1,.5,1.6,54.15,54.15,0,0,0-4.8,4.8c-1.6,2-3.1,4.2-4.6,6.5a58.08,58.08,0,0,0-4,7.4,75.84,75.84,0,0,0-3,7.7,51.93,51.93,0,0,1,3.4-5.2,36.06,36.06,0,0,1,3.6-4,31.63,31.63,0,0,1,3.6-2.6,8.36,8.36,0,0,1,3.3-1,5.59,5.59,0,0,1,2.3,4.5,8.29,8.29,0,0,1-.7,3.4,14.92,14.92,0,0,1-1.8,3,11.85,11.85,0,0,1-2.5,2.5,10.13,10.13,0,0,1-3,1.4,26,26,0,0,0,1.3,3.6,16.49,16.49,0,0,0,2,3.7,15.94,15.94,0,0,0,2.5,3.3,13.13,13.13,0,0,0,3.2,2.5,2.35,2.35,0,0,1-.8,1,4,4,0,0,1-1.2,1l-1.6.6a8.81,8.81,0,0,1-1.7.2,3.6,3.6,0,0,1-2.6-1.4,14.6,14.6,0,0,1-2.2-4q-.75-2.25-1.5-5.1a61.89,61.89,0,0,1-1.3-6.2l1.8-1.4,2.3-2.1c3.1-2.9,4.6-5.5,4.6-7.7,0-.3-.2-.4-.6-.4a4.49,4.49,0,0,0-2.5,1,30.52,30.52,0,0,0-3,2.6,50.79,50.79,0,0,0-3.2,4,36.16,36.16,0,0,0-3.1,4.8l-1.2,2.3-.9,2.8-.6,2.9-.2,2.6a3.09,3.09,0,0,0,.2,1.1c-1.1-.1-1.7-.3-2-.8l-.7-1-.6-.6a3.37,3.37,0,0,1-.8-1.6A12.62,12.62,0,0,1,224.62,89.13Z" transform="translate(148.24 89.65)"/><path class="cls-31" d="M255.72,74.13h-3l-.4-1.4-.2-1.7,2.6.2,2.3.1a30.13,30.13,0,0,1,1.6-3.1l1.8-2.8,1.6-2.2a3.64,3.64,0,0,1,1.2-1.1l1.3.2,1.7.4,1.5.6,1,.7a35.81,35.81,0,0,0-2.8,3.6l-2.4,3.9h2.1l2.2-.2.4.6a2.92,2.92,0,0,1,.2.9,21.73,21.73,0,0,1-6.2,1c-.9,1.7-1.6,3.3-2.3,5l-1.8,4.7a26.31,26.31,0,0,0-1,4.3,17.19,17.19,0,0,0-.5,3.7c0,1.5.6,2.4,1.8,2.5a11.14,11.14,0,0,0,3-.8,7.22,7.22,0,0,0,2.4-1.4l.4.8-1,1-1.7,1.3-1.7,1-1.3.5a6.16,6.16,0,0,1-2.6-.6,8.58,8.58,0,0,1-2.3-1.3,7.69,7.69,0,0,1-1.8-1.8,3.2,3.2,0,0,1-.7-1.9,13.76,13.76,0,0,1,.4-3.1,24.32,24.32,0,0,1,1-4.1l1.4-4.7A34.06,34.06,0,0,1,255.72,74.13Z" transform="translate(148.24 89.65)"/></g><path class="cls-18" d="M106.22,339.94v56h-8V371H66.06v25h-8v-56h8V364H98.22V339.94Z" transform="translate(148.24 89.65)"/><path class="cls-18" d="M160.06,377.3h-34.4a13.33,13.33,0,0,0,4.92,9A16.09,16.09,0,0,0,141,389.7a15.73,15.73,0,0,0,12.24-5.12l4.24,5a18.67,18.67,0,0,1-7.16,5.12,27,27,0,0,1-21.48-1,19.69,19.69,0,0,1-8-7.72,22.18,22.18,0,0,1-2.84-11.2,22.45,22.45,0,0,1,2.76-11.12,19.73,19.73,0,0,1,7.6-7.72,21.67,21.67,0,0,1,10.92-2.76,21.21,21.21,0,0,1,10.84,2.76,19.4,19.4,0,0,1,7.44,7.72A23.45,23.45,0,0,1,160.22,375,21.25,21.25,0,0,1,160.06,377.3ZM130,363a13.55,13.55,0,0,0-4.36,8.8h27.2A13.62,13.62,0,0,0,148.5,363,14.32,14.32,0,0,0,130,363Z" transform="translate(148.24 89.65)"/><path class="cls-18" d="M207.58,353.54,187,400.18q-2.72,6.48-6.36,9.12a14.53,14.53,0,0,1-8.76,2.64,18.71,18.71,0,0,1-6-1A12.41,12.41,0,0,1,161,408l3.28-5.76a10.7,10.7,0,0,0,7.6,3.12,7.36,7.36,0,0,0,4.68-1.48,12.65,12.65,0,0,0,3.4-5.08l1.36-3-18.72-42.32h8l14.8,33.92,14.64-33.92Z" transform="translate(148.24 89.65)"/><path class="cls-18" d="M217.78,387a5.4,5.4,0,0,1,1.48,3.88,9.39,9.39,0,0,1-.28,2.32c-.19.74-.55,1.89-1.08,3.44l-3.76,11.12h-5l3-11.92a5.06,5.06,0,0,1-2.44-1.88,5.73,5.73,0,0,1,.6-7,5.17,5.17,0,0,1,3.84-1.52A4.92,4.92,0,0,1,217.78,387Z" transform="translate(148.24 89.65)"/><path class="cls-18" d="M317.54,357.78q4.68,4.64,4.68,13.76v24.4h-7.68V372.42q0-6.17-2.84-9.28T303.58,360a12.15,12.15,0,0,0-9.28,3.64q-3.44,3.63-3.44,10.44v21.84h-7.68V372.42q0-6.17-2.84-9.28T272.22,360a12.15,12.15,0,0,0-9.28,3.64q-3.44,3.63-3.44,10.44v21.84h-7.68v-42.4h7.36v6.32a14.8,14.8,0,0,1,6.08-5,20.32,20.32,0,0,1,8.56-1.72,18.68,18.68,0,0,1,8.8,2,13.9,13.9,0,0,1,5.92,5.84,16.17,16.17,0,0,1,6.68-5.76,21.72,21.72,0,0,1,9.64-2.08Q312.86,353.14,317.54,357.78Z" transform="translate(148.24 89.65)"/><path class="cls-18" d="M373.1,353.54l-20.56,46.64q-2.71,6.48-6.36,9.12a14.53,14.53,0,0,1-8.76,2.64,18.71,18.71,0,0,1-6-1,12.41,12.41,0,0,1-4.84-2.92l3.28-5.76a10.7,10.7,0,0,0,7.6,3.12,7.36,7.36,0,0,0,4.68-1.48,12.65,12.65,0,0,0,3.4-5.08l1.36-3-18.72-42.32h8l14.8,33.92,14.64-33.92Z" transform="translate(148.24 89.65)"/><path class="cls-18" d="M437.3,357.82q4.76,4.68,4.76,13.72v24.4h-7.68V372.42q0-6.17-3-9.28c-2-2.08-4.8-3.12-8.48-3.12q-6.24,0-9.84,3.64t-3.6,10.44v21.84h-7.68v-42.4h7.36v6.4a14.84,14.84,0,0,1,6.28-5,21.84,21.84,0,0,1,9-1.76Q432.53,353.14,437.3,357.82Z" transform="translate(148.24 89.65)"/><path class="cls-18" d="M485.22,357.46q4.68,4.32,4.68,12.88v25.6h-7.28v-5.6a12.18,12.18,0,0,1-5.48,4.52,21,21,0,0,1-8.44,1.56q-7.12,0-11.4-3.44a11.82,11.82,0,0,1-.2-18q4.08-3.4,13-3.4h12.16V370q0-5-2.88-7.6t-8.48-2.64A22.35,22.35,0,0,0,463.5,361a18.74,18.74,0,0,0-6.08,3.32l-3.2-5.76a23.1,23.1,0,0,1,7.84-4,32.56,32.56,0,0,1,9.68-1.4Q480.53,353.14,485.22,357.46Zm-7.64,31.08a11.25,11.25,0,0,0,4.64-5.56v-5.92H470.38q-9.76,0-9.76,6.56a5.93,5.93,0,0,0,2.48,5A11.36,11.36,0,0,0,470,390.5,14.35,14.35,0,0,0,477.58,388.54Z" transform="translate(148.24 89.65)"/><path class="cls-18" d="M569.86,357.78q4.68,4.64,4.68,13.76v24.4h-7.68V372.42q0-6.17-2.84-9.28c-1.9-2.08-4.6-3.12-8.12-3.12a12.13,12.13,0,0,0-9.28,3.64q-3.45,3.63-3.44,10.44v21.84H535.5V372.42q0-6.17-2.84-9.28c-1.9-2.08-4.6-3.12-8.12-3.12a12.13,12.13,0,0,0-9.28,3.64q-3.45,3.63-3.44,10.44v21.84h-7.68v-42.4h7.36v6.32a14.74,14.74,0,0,1,6.08-5,20.29,20.29,0,0,1,8.56-1.72,18.71,18.71,0,0,1,8.8,2,13.9,13.9,0,0,1,5.92,5.84,16.11,16.11,0,0,1,6.68-5.76,21.69,21.69,0,0,1,9.64-2.08Q565.17,353.14,569.86,357.78Z" transform="translate(148.24 89.65)"/><path class="cls-18" d="M627.1,377.3H592.7a13.33,13.33,0,0,0,4.92,9,16.09,16.09,0,0,0,10.44,3.4,15.76,15.76,0,0,0,12.24-5.12l4.24,5a18.67,18.67,0,0,1-7.16,5.12,27,27,0,0,1-21.48-1,19.69,19.69,0,0,1-8-7.72,22.07,22.07,0,0,1-2.84-11.2,22.45,22.45,0,0,1,2.76-11.12,19.73,19.73,0,0,1,7.6-7.72,21.61,21.61,0,0,1,10.92-2.76,21.24,21.24,0,0,1,10.84,2.76,19.4,19.4,0,0,1,7.44,7.72A23.57,23.57,0,0,1,627.26,375C627.26,375.56,627.2,376.34,627.1,377.3Zm-30-14.32a13.51,13.51,0,0,0-4.36,8.8h27.2a13.62,13.62,0,0,0-4.36-8.76,14.32,14.32,0,0,0-18.48,0Z" transform="translate(148.24 89.65)"/><path class="cls-18" d="M57.06,443.94a4.72,4.72,0,0,1-1.48-3.52,4.82,4.82,0,0,1,1.48-3.56,5,5,0,0,1,3.72-1.48,5.18,5.18,0,0,1,3.72,1.4A4.57,4.57,0,0,1,66,440.26a4.94,4.94,0,0,1-1.48,3.64,5.47,5.47,0,0,1-7.44,0Zm-.12,9.6h7.68v42.4H56.94Z" transform="translate(148.24 89.65)"/><path class="cls-18" d="M81.42,495a22.05,22.05,0,0,1-7.52-3.56l3.2-6.08a23.05,23.05,0,0,0,6.8,3.2,28,28,0,0,0,8.08,1.2q10.08,0,10.08-5.76a3.71,3.71,0,0,0-1.36-3,8.5,8.5,0,0,0-3.4-1.64q-2-.52-5.8-1.16a58.27,58.27,0,0,1-8.36-1.84,13,13,0,0,1-5.56-3.52,9.8,9.8,0,0,1-2.32-7,10.87,10.87,0,0,1,4.8-9.24q4.8-3.48,12.88-3.48a35.15,35.15,0,0,1,8.48,1,22.49,22.49,0,0,1,7,2.8l-3.28,6.08a22.07,22.07,0,0,0-12.24-3.36q-4.87,0-7.44,1.6a4.81,4.81,0,0,0-2.56,4.24,4.05,4.05,0,0,0,1.44,3.28,9.22,9.22,0,0,0,3.56,1.76q2.11.56,6,1.28a63.27,63.27,0,0,1,8.28,1.88,12.27,12.27,0,0,1,5.4,3.4,9.49,9.49,0,0,1,2.24,6.72,10.6,10.6,0,0,1-4.92,9.16q-4.92,3.39-13.4,3.4A35.64,35.64,0,0,1,81.42,495Z" transform="translate(148.24 89.65)"/><path class="cls-32" d="M151.54,493.18a27.78,27.78,0,0,1-10.88-10.32,30.09,30.09,0,0,1,0-29.84,27.78,27.78,0,0,1,10.88-10.32,34.72,34.72,0,0,1,28.72-1.16,26.31,26.31,0,0,1,9.88,7.36l-8.32,7.68A17.87,17.87,0,0,0,167.74,450a18.69,18.69,0,0,0-9.28,2.28,16.21,16.21,0,0,0-6.36,6.36,20,20,0,0,0,0,18.56,16.21,16.21,0,0,0,6.36,6.36,18.69,18.69,0,0,0,9.28,2.28,17.83,17.83,0,0,0,14.08-6.64l8.32,7.68a26,26,0,0,1-9.92,7.44A33.06,33.06,0,0,1,167,496.9,32.15,32.15,0,0,1,151.54,493.18Z" transform="translate(148.24 89.65)"/><path class="cls-32" d="M237.06,457.06q4.92,4.8,4.92,14.24v24.64H229.5V473.22c0-3.42-.75-6-2.24-7.64a8.23,8.23,0,0,0-6.48-2.52,9.9,9.9,0,0,0-7.52,2.92c-1.87,1.94-2.8,4.84-2.8,8.68v21.28H198V436.58h12.48v20.8a16.46,16.46,0,0,1,6-3.8,21.65,21.65,0,0,1,7.68-1.32Q232.14,452.26,237.06,457.06Z" transform="translate(148.24 89.65)"/><path class="cls-32" d="M271.22,453.86a22.33,22.33,0,0,1,8.76-1.6v11.52c-1.39-.11-2.32-.16-2.8-.16q-5.37,0-8.4,3t-3,9v20.32H253.26v-43h11.92v5.68A13.77,13.77,0,0,1,271.22,453.86Z" transform="translate(148.24 89.65)"/><path class="cls-32" d="M288.06,444.9a6.77,6.77,0,0,1,0-9.92,7.87,7.87,0,0,1,5.6-2,8.12,8.12,0,0,1,5.6,1.92,6.16,6.16,0,0,1,2.16,4.8,6.79,6.79,0,0,1-2.16,5.16,7.83,7.83,0,0,1-5.6,2A7.92,7.92,0,0,1,288.06,444.9Zm-.64,8H299.9v43H287.42Z" transform="translate(148.24 89.65)"/><path class="cls-32" d="M315.5,495.26a27.32,27.32,0,0,1-8.16-3.32l4.16-9a26.62,26.62,0,0,0,7,3,29.26,29.26,0,0,0,8,1.16q7.92,0,7.92-3.92a2.77,2.77,0,0,0-2.16-2.64,31.44,31.44,0,0,0-6.64-1.36,65.5,65.5,0,0,1-8.72-1.84,13.55,13.55,0,0,1-6-3.68q-2.52-2.64-2.52-7.52a11.72,11.72,0,0,1,2.36-7.24,15.09,15.09,0,0,1,6.88-4.92,29.22,29.22,0,0,1,10.68-1.76,41.75,41.75,0,0,1,9.08,1,25.12,25.12,0,0,1,7.48,2.76l-4.16,8.88a24.77,24.77,0,0,0-12.4-3.2,12.56,12.56,0,0,0-6,1.12,3.27,3.27,0,0,0-2,2.88,2.87,2.87,0,0,0,2.16,2.8,38.46,38.46,0,0,0,6.88,1.52A71.65,71.65,0,0,1,338,471.9a13,13,0,0,1,5.84,3.64,10.34,10.34,0,0,1,2.48,7.36,11.38,11.38,0,0,1-2.4,7.12,15.38,15.38,0,0,1-7,4.84A31.37,31.37,0,0,1,326,496.58,41.75,41.75,0,0,1,315.5,495.26Z" transform="translate(148.24 89.65)"/><path class="cls-32" d="M381.74,493.86a13.16,13.16,0,0,1-4.52,2,23.05,23.05,0,0,1-5.64.68q-7.68,0-11.88-3.92t-4.2-11.52V463.46h-6.64v-9.6h6.64V443.38H368v10.48H378.7v9.6H368V481a5.86,5.86,0,0,0,1.4,4.2,5.2,5.2,0,0,0,4,1.48,8.07,8.07,0,0,0,5-1.6Z" transform="translate(148.24 89.65)"/><path class="cls-32" d="M395.7,493.74a21.12,21.12,0,0,1-8.44-7.88,23,23,0,0,1,0-22.88,21,21,0,0,1,8.44-7.88,27.54,27.54,0,0,1,24.36,0,21.2,21.2,0,0,1,8.4,7.88,23,23,0,0,1,0,22.88,21.27,21.27,0,0,1-8.4,7.88,27.54,27.54,0,0,1-24.36,0Zm20.08-10.64a13.77,13.77,0,0,0,0-17.36,10.4,10.4,0,0,0-7.88-3.24,10.52,10.52,0,0,0-7.92,3.24,13.63,13.63,0,0,0,0,17.36,10.52,10.52,0,0,0,7.92,3.24A10.4,10.4,0,0,0,415.78,483.1Z" transform="translate(148.24 89.65)"/><path class="cls-32" d="M476.18,455a19.8,19.8,0,0,1,7.72,7.76,25.59,25.59,0,0,1,0,23.28,19.86,19.86,0,0,1-7.72,7.76,21.93,21.93,0,0,1-10.92,2.76q-8.25,0-13-5.2v20.08H439.82V452.9h11.92v5q4.63-5.61,13.52-5.6A21.93,21.93,0,0,1,476.18,455ZM471,483.1a13.77,13.77,0,0,0,0-17.36,11.2,11.2,0,0,0-15.76,0,13.77,13.77,0,0,0,0,17.36,11.2,11.2,0,0,0,15.76,0Z" transform="translate(148.24 89.65)"/><path class="cls-32" d="M534.1,457.06q4.92,4.8,4.92,14.24v24.64H526.54V473.22c0-3.42-.75-6-2.24-7.64a8.23,8.23,0,0,0-6.48-2.52A9.9,9.9,0,0,0,510.3,466c-1.87,1.94-2.8,4.84-2.8,8.68v21.28H495V436.58H507.5v20.8a16.46,16.46,0,0,1,6-3.8,21.65,21.65,0,0,1,7.68-1.32Q529.17,452.26,534.1,457.06Z" transform="translate(148.24 89.65)"/><text class="cls-33" transform="translate(198.8 662.58)">https://codepunkt.de/</text></svg>