<?xml version="1.0" encoding="utf-8"?>
<svg version="1.1" xmlns="http://www.w3.org/2000/svg" xmlns:xlink="http://www.w3.org/1999/xlink" x="0px" y="0px" width="1200" height="630"
	 viewBox="0 0 1200 630">
<style type="text/css">
	.st0{fill:none;}
	.st1{fill:#0F1923;}
	.st2{fill:#EED8CC;stroke:#716256;stroke-linecap:round;stroke-linejoin:round;stroke-miterlimit:10;}
	.st3{fill:#736578;}
	.st4{fill:#D7BFB2;}
	.st5{fill:#645B69;}
	.st6{fill:#EED8CC;}
	.st7{fill:none;stroke:#716256;stroke-linecap:round;stroke-miterlimit:10;}
	.st8{fill:#FAF9F5;stroke:#716256;stroke-miterlimit:10;}
	.st9{display:none;}
	.st10{display:inline;fill:#D7BFB2;}
	.st11{display:inline;fill:#FAF9F5;stroke:#716256;stroke-width:2;stroke-miterlimit:10;}
	.st12{fill:#A97959;}
	.st13{fill:#9C6D52;}
	.st14{fill:#B28267;}
	.st15{display:inline;fill:#A97959;}
	.st16{display:inline;fill:#9C6D52;}
	.st17{display:inline;fill:#B28267;}
	.st18{display:inline;fill:#FBFDFE;}
	.st19{display:inline;fill:#DDEFF1;}
	.st20{display:inline;fill:#92C3C3;}
	.st21{display:inline;fill:#9C9B9B;}
	.st22{display:inline;fill:#FFFFFF;}
	.st23{display:inline;fill:#172A32;}
	.st24{display:inline;fill:none;stroke:#CCBCAC;stroke-miterlimit:10;}
	.st25{fill:#FFFFFF;}
	.st26{fill:#0D5F61;}
	.st27{fill:#020203;}
	.st28{fill:none;stroke:#716256;stroke-linecap:round;stroke-linejoin:round;stroke-miterlimit:10;}
	.st29{fill:#676767;stroke:#020203;stroke-linecap:round;stroke-linejoin:round;stroke-miterlimit:10;}
	.st30{fill:#304050;stroke:#020203;stroke-linecap:round;stroke-linejoin:round;}
	.st31{fill:#162430;}
	.st32{display:none;fill:#3E4156;}
	.st33{display:inline;}
	.st34{fill:#16212C;}
	.st35{clip-path:url(#SVGID_4_);fill:none;stroke:#3E4156;stroke-width:8;stroke-miterlimit:10;}
	.st36{clip-path:url(#SVGID_6_);fill:none;stroke:#3E4156;stroke-width:5;stroke-miterlimit:10;}
	.st37{fill:#C6C5DD;}
	.st38{fill:#B296C6;}
	.st39{fill:#E7CEE5;}
</style>
<g>
	<rect x="1" class="st0" width="648.1" height="630"/>
	<rect x="649.1" class="st1" width="550.9" height="630"/>
</g>
<g>
	<g>
		<g>
			<g id="body">
				<path id="neck" class="st2" d="M966.8,547.7c30.3,17,65.9,5.2,79.8,0.5c27.1-9.1,44-25.2,52.2-33.2
					c22.7-22.2,33.2-46.3,37.9-59.9c-4-3.1-7.4-6.4-10.2-9.8c-26.5-30.8-17.7-76.2-14.9-89c-0.9,6-7.8,45.2-43.2,66.2
					c-18.5,10.9-36.6,12.1-45.9,12c0,0-0.2,0-0.2,0c-13.3-1.8-32.1-2.7-54,1.1c-16.6,2.9-30.4,7.7-40.8,12.3
					C921,490.7,936.7,530.8,966.8,547.7z"/>
				<g>
					<path class="st0" d="M936.8,621.3c-34.4-1.4-83.9-12.7-142.8-60.5c5.9-12.3,16.9-31.1,36.8-47.6c39.7-32.8,85.8-32.2,98.9-31.6
						c0.9,11,5.1,44.6,31.1,63.1c39.5,28.1,95.6-3.1,110.9-11.6c9.3-5.1,38.7-22,56.3-56.9c4.3-8.7,7-16.3,8.5-21.8
						c13.3,0.8,37.9,3.9,63.6,18.4V0H1v630h1199v-64.7C1099.8,550.4,1037.7,625.6,936.8,621.3z"/>
					<path class="st3" d="M1127.9,476.1c-17.6,34.9-47,51.8-56.3,56.9c-15.3,8.5-71.4,39.7-110.9,11.6c-26-18.5-30.1-52.1-31.1-63.1
						c-13.1-0.6-59.1-1.2-98.9,31.6c-19.9,16.6-30.9,35.3-36.8,47.6c58.9,47.8,108.4,59.1,142.8,60.5
						c100.9,4.3,163.1-70.9,263.2-56.1v-92.5c-25.6-14.5-50.3-17.6-63.6-18.4C1134.9,459.8,1132.2,467.5,1127.9,476.1z"/>
				</g>
				<path id="neck-shadow" class="st4" d="M1099.2,392.5c5.4,39.4,4.1,69.4,1.7,79.6c-1.2,4.8-6.3,21.1-6.8,22.9
					c-1.2,3.6-1.5,4.5-1.9,5.1c-0.9,1.8-1.8,2.8-2.4,5c-0.2,0.9-0.4,1.8-0.5,2.6c-0.3,2.1-0.2,2.9-0.3,4.1c-0.3,2.7-1.4,3-2.4,6.5
					c-0.8,2.5-0.4,2.9-0.9,4.8c-0.6,2.4-4.6,6.7-5.7,7.5c-65.2,49-116.3,15-116.3,15c-30.5-20.3-45.3-59.3-36.6-97.2
					c11.7-5.3,30.9-12.5,55.5-14.9c31.1-2.9,45.1,4.3,67.3-2.3C1062.8,427.3,1081,418.1,1099.2,392.5z"/>
				<path id="shirt-shadow" class="st5" d="M920.4,529.6c1.9,3.3,2.7,5,2.9,5.6c0.9,3.2-0.3,4,0.8,5.9c1.2,2.2,2.9,1.5,5.3,4.1
					c1.7,1.9,1.1,2.4,2.8,4.3c2.2,2.4,3.5,1.8,5.3,4.1c1.8,2.2,0.9,3,2.6,4.6c1.9,1.7,3.2,1,5.1,3.1c1.2,1.2,1.1,1.9,2.3,2.6
					c1.5,0.9,2.1,0.2,3.6,0.8c1.2,0.5,2.2,1.9,4.3,4.8c1,1.4,1.5,2.2,2.4,2.2c0.9,0.1,1.1-0.6,2.2-1c1.9-0.7,4.4,0,4.8,1.2
					c0.3,0.9-0.7,1.6-0.3,2c0.4,0.5,1.7-0.5,3.4-0.3c1.2,0.1,1.4,0.7,3.4,1.9c2,1.2,4.5,2.7,6,1.9c1-0.5,0.9-1.7,1.7-1.9
					c0.9-0.2,1.2,1,2.6,1.5c1.2,0.5,1.5-0.2,4.1-0.3c2.5-0.2,2.7,0.2,4.4-0.2c1.3-0.3,1.4-0.7,2.6-0.9c1.1-0.2,1.9,0,3.6,0.3
					c5.3,1,6.1,0.8,6.7,0.3c0.9-0.6,0.5-1.1,1.4-1.5c1.5-0.8,2.7,0.8,4.4,0.2c1.2-0.4,0.9-1.2,2.4-1.7c1.1-0.5,1.3-0.1,2.6-0.5
					c1.5-0.5,1.4-1.1,2.6-1.4c1.4-0.4,1.7,0.4,3.1,0c1.3-0.4,1.2-1.1,2.7-1.7c1.6-0.6,2.2,0.1,3.3-0.7c1.1-0.8,0.7-1.7,1.7-2.2
					c1-0.5,1.5,0.2,3.1,0c1.4-0.2,1.3-1,3.3-1.7c1.8-0.7,2.1-0.2,3.4-0.9c1.4-0.8,1.3-1.5,2.4-1.7c1.2-0.2,1.8,0.6,2.9,0.3
					c1.1-0.2,1.7-1.3,2-1.9c2.1-3.3,6.8-5.9,10.6-6.1c2.2-0.2,2.8,0.5,4.1-0.2c1.8-1,1.2-2.8,2.9-5c1.8-2.3,3.2-1.2,6.1-3.7
					c2.3-1.9,1.7-2.8,4.6-5.7c1.9-1.9,2.6-1.9,4.3-3.6c1.9-1.9,2.9-4,3.6-5.4c-8.6,7-25.9,19-50.5,23.6
					c-14.7,2.7-44.5,8.2-68.4-11.1c-24.9-20.1-25.3-52.8-25.3-58.1c-5.9,0.5-11.8,1-17.7,1.5c1.4,23.3,1.2,32.1,0.2,34.3
					c-0.1,0.2-0.5,1.1-0.5,2.3C918,525.5,918.8,526.8,920.4,529.6z"/>
			</g>
			<g id="head">
				<g id="face">
					<path id="face-fill" class="st6" d="M1155.6,249.9c0-0.3-0.1-0.5-0.1-0.9c-0.3-3.8-0.9-8.9-2.8-14.4c-0.1-0.2-0.1-0.5-0.2-0.8
						c-0.2-0.9-1.4-6.5-6.5-9.1c-1.7-0.9-3.3-1.1-4.6-1.1c-2.5-0.1-4.3,0.8-5.5,1.4c-0.3,0.2-0.5,0.2-0.8,0.4
						c-0.5,0.2-0.9,0.2-1.3,0.4c-1.1-10.5-3.4-24.8-8.6-41.1c-4.8-14.9-10.1-25.3-11.2-27.6c-1.8-3.5-17.8-34.2-43.4-52.4
						c-36.8-26.3-95.8-28.7-140.4-0.6c-41.8,26.3-54.5,68.9-57.5,80.5c-0.7,6.8-1.1,12.4-1.2,16.3c-0.4,7.5-0.2,9.8-0.3,13.5
						c-0.1,2.2-0.2,3.9-0.3,4.7c-1,11.2-1.5,16.9-1.4,20c0.5,9.5,3.9,12.2,4.1,24.6c0,1.3,0,2.4,0,2.9c-0.1,2.2-0.5,5.3-2,19.1
						c-0.5,4.3-0.9,9-0.9,13.9c-0.2,7.9,0.5,12.4,1,18.8c1.1,12.4,2.5,40.4,7,54.9c0,0.1,0,0.1,0.1,0.2c5.1,17.8,13.4,38,25.7,52.7
						c4.1,5.8,7.9,10.5,10.8,14c1.9,2.7,4.6,6.7,8,11.5c2.4,4,4.6,7.7,8.5,12.6c2,2.6,5.4,6.9,9.2,10.4c1.6,1.7,3.2,3,4.7,4
						c7.2,4.5,14.3,5,24.9,5.2c1.2,0,2.3,0.1,3.6,0c0.1,0,0.2,0,0.3,0c8.3,0.1,15.7-0.8,22-1.9c4.3-0.8,8.5-1.8,12.6-3
						c0.9-0.2,1.7-0.5,2.5-0.8c1.5-0.5,3.1-1,4.6-1.7c19.7-7.4,36.6-20.1,56.7-35c1.1-0.8,2.1-1.5,3.2-2.4l0,0
						c7.8-5.4,20.5-14.4,31.5-27.2c6.1-6.8,11-14.1,13.8-22c3.4-8.8,4.2-16.7,4.8-23.1l0,0c0.5-4.3,0.6-6.1,0.6-6.1
						c0-1.5,0-4.6,0.2-8.3c0.1-1.3,0.1-2.6,0.2-4.1c0.2-5,0.8-10.7,1.7-15.6c0.8-2.9,1.7-5.4,2.6-7.5c0.1-0.1,0.1-0.2,0.2-0.2
						c2.6-4,6-5.4,8.5-7.2c1.2-0.9,2.3-1.9,3.3-3l0,0l0,0c2-2.5,3.5-5.7,5.8-10.6c5.3-11.3,5.7-21.5,6.4-40.1
						C1156.2,256.9,1155.7,250.8,1155.6,249.9z"/>
					<path id="face-hair" class="st4" d="M1103.2,240.1c-2.2-0.9-7.3-21-17.3-61.1l0,0c-9.2-30.8-38-70.2-75.1-80.4
						c-44.4-12.3-101.3,16.8-133.2,73.9c2.2-7,6.6-16.3,12.5-27c8.4-15.4,19.8-24.5,28-31.1c36.6-29.3,78.9-29.7,84.1-29.7
						c10,0.1,33.2,0.4,58.1,13.9c0,0,31.6,17.1,48.9,49.7c5.7,10.7,10.8,22.8,10.8,22.8c2.8,6.7,10.5,26.7,7.9,20.1l0,0
						c3.3,13.2,6.6,35.4,6.6,35.4h-0.1h0.1C1134.6,226.6,1114,244.7,1103.2,240.1z"/>
					<path id="face-outline" class="st7" d="M1156.2,250.7c0-0.3-0.1-0.5-0.1-0.9c-0.3-3.8-0.9-8.9-2.8-14.4
						c-0.1-0.2-0.1-0.5-0.2-0.8c-0.2-0.9-1.4-6.5-6.5-9.1c-1.7-0.9-3.3-1.1-4.6-1.1c-2.5-0.1-4.3,0.8-5.5,1.4
						c-0.3,0.2-0.5,0.2-0.8,0.4c-0.5,0.2-0.9,0.2-1.3,0.4c-1.1-10.5-3.4-24.8-8.6-41.1c-4.8-14.9-10.1-25.3-11.2-27.6
						c-1.8-3.5-17.8-34.2-43.4-52.4c-36.8-26.3-95.8-28.7-140.4-0.6c-41.8,26.3-54.5,68.9-57.5,80.5c-0.7,6.8-1.1,12.4-1.2,16.3
						c-0.4,7.5-0.2,9.8-0.3,13.5c-0.1,2.2-0.2,3.9-0.3,4.7c-1,11.2-1.5,16.9-1.4,20c0.5,9.5,3.9,12.2,4.1,24.6c0,1.3,0,2.4,0,2.9
						c-0.1,2.2-0.5,5.3-2,19.1c-0.5,4.3-0.9,9-0.9,13.9c-0.1,2.2,0,4.3,0.1,6.1c0.2,5.5,0.6,8.2,1,12.7c1,11.3,0,13.3,1.4,21.9
						c0.5,2.8,1,5,1.4,6.5c0.4,6.1,1.3,15.2,4.3,26.5c0,0.1,0.2,0.9,0.5,1.7c6.6,24.2,22.8,47.6,25.3,51.1c2.5,3.6,6.1,8.4,10.8,14
						c1.9,2.7,4.6,6.7,8,11.5c2.4,4,4.6,7.7,8.5,12.6c2,2.6,5.4,6.9,9.2,10.4c1.6,1.7,3.2,3,4.7,4c7.2,4.5,14.3,5,24.9,5.2
						c1.2,0,2.3,0.1,3.6,0c0.1,0,0.2,0,0.3,0c8.3,0.1,15.7-0.8,22-1.9c4.3-0.8,8.5-1.8,12.6-3c0.9-0.2,1.7-0.5,2.5-0.8
						c1.5-0.5,3.1-1,4.6-1.7c19.7-7.4,36.6-20.1,56.7-35c1.1-0.8,2.1-1.5,3.2-2.4l0,0c7.8-5.4,20.5-14.4,31.5-27.2
						c6.1-6.8,11-14.1,13.8-22c3.4-8.8,4.2-16.7,4.8-23.1l0,0c0.5-4.3,0.6-6.1,0.6-6.1c0-1.5,0-4.6,0.2-8.3c0.1-1.3,0.1-2.6,0.2-4.1
						c0.2-5,0.8-10.7,1.7-15.6c0.8-2.9,1.7-5.4,2.6-7.5c0.1-0.1,0.1-0.2,0.2-0.2c2.6-4,6-5.4,8.5-7.2c1.2-0.9,2.3-1.9,3.3-3l0,0l0,0
						c2-2.5,3.5-5.7,5.8-10.6c5.3-11.3,5.7-21.5,6.4-40.1C1156.7,257.7,1156.3,251.5,1156.2,250.7z"/>
				</g>
				<g id="mouth">
					<g id="mouth-grin">
						<path id="lower-lip" class="st4" d="M917.5,366.9c0.9,6,4.6,24.5,20.6,36.2c23.6,17.3,53.4,4.9,62,1.3
							c5.3-2.2,18.7-8,26.3-20.9c2.2-4,5.3-10.8,4.2-11.5c-1.1-0.8-5.7,4.2-7,5.5c-16,16.5-68.1,31.1-83.5,14
							c-4.1-4.6-7-13.1-18.5-21.7C919.8,368.5,918.4,367.5,917.5,366.9z"/>
						<path id="teeth_2_" class="st8" d="M919.2,367.5c2.6,1.9,6.4,4.9,10.4,9.2c6.4,6.8,7.9,11.2,10.5,14.4
							c9.5,11.2,32.2,7.4,41.5,5.7c23.2-4,39.2-16.7,47.4-24.4c-16.7-6.5-29.4-6.3-37.9-5c-17.9,2.9-26.1,12.3-39.2,7.7
							c-5.7-2-9.5-5.7-18.9-7.4C927.3,366.8,922.5,367.1,919.2,367.5z"/>
					</g>
					<g id="mouth-confused" class="st9">
						<path id="lower-lip_2_" class="st10" d="M803,340.5c0,1.7,0.3,4.6,1.5,7.8c10.3,26.5,76.4,35.3,102.7,10.7
							c4.7-4.4,13.6-14.9,12.1-16.7c-0.6-0.8-3,0.4-6.1,1.7c-6.7,2.7-13.8,4.1-20.6,6.3c-22,7-50,2.7-55,2c-6.8-1-11.4-2.3-13.7-3
							C814.8,346.7,807.7,343.2,803,340.5z"/>
						<path id="teeth_1_" class="st11" d="M805.2,341c1.8,1.3,4.5,3,8,4.5c3.9,1.8,7.6,2.9,11.6,3.7c30.1,6.4,48.6,4.6,48.6,4.6
							c18.6-1.7,33.4-7.3,43.3-12c-6.3-0.5-16-0.9-27.8,0c-25.4,2-28.7,7.7-44.5,5.2c-7.3-1.2-13.6-3.5-28.7-5.2
							C811.3,341.4,807.7,341.2,805.2,341z"/>
					</g>
				</g>
				<g id="beard">
					<g id="beard-grin">
						<path id="beard-base_1_" class="st12" d="M1132.8,228.2c-1.1,0.5-2.6,1.4-4,2.9c-6.4,6.7-5,20-5,20c0.2,4.3,0.5,10.9,0.9,19.1
							c0.4,9.2,0.4,9.1,0.5,10.5c0.9,8.4,2.2,12.2,2,20.2c-0.1,2.4-0.2,2.7-0.2,4.9c-0.4,10.6,2.2,18.1,3.5,23.7
							c0.5,2.2,3.6,16.3-0.5,31.3c-2.6,9.4-7.7,18.9-4.9,25.3c0.5,0.9,1.7,3.3,1,5.9c-0.5,1.9-1.7,2.7-3.9,5.7
							c-1.8,2.5-2.6,3.7-3,5.1c-1.2,4,0.5,6.9-0.9,7.7c-1.1,0.7-2.6-1-3.6-0.3c-1.2,0.9,1.1,4.1,0.2,7.7c-0.9,3.3-3.5,2.5-5.7,6.7
							c-1.6,3.2-0.7,4.6-2.9,9.2c-0.5,1-1.1,2-1.8,3c-1.2,1.7-2.7,3.4-3.7,4.6c-4.2,4.8-5.6,5.1-7.1,7.9c-2,3.6-0.5,4.3-2.3,7.1
							c-2.6,4.3-5.9,2.8-10,6.9c-4.5,4.6-2.2,8.1-6.9,11.2c-2.2,1.4-4.3,1.8-5.3,4.1c-0.9,2,0,3.2-1,4.3c-1.8,2-5.6-0.8-8.2,1
							c-3.3,2.2-1.5,9.5-3.3,10c-1.3,0.3-2.2-3.1-4.1-3.1c-2.8,0-2.9,7.1-8.2,9.8c-2.4,1.2-2.9-0.1-5.3,1.3
							c-4.1,2.2-4.3,6.7-7.1,6.9c-1.6,0.2-1.9-1.3-3.6-1.2c-2.9,0.2-3.1,4-6.7,5.8c-3.1,1.5-4.3-0.8-8.4,0.5c-4.1,1.3-4.3,4-7.4,4.1
							c-3,0.1-3.6-2.3-6.4-2c-3.1,0.3-3.2,3.3-6.7,4.1c-3,0.6-3.9-1.5-6.9-0.8c-3.2,0.7-3.1,3.2-5.9,3.6c-3.3,0.5-4.8-2.8-7.4-1.9
							c-2.3,0.8-2.8,4-4,3.7c-1.1-0.2-0.5-3-2.5-4.9c-1.9-1.7-5.4-1.9-7.7-0.6c-1.9,1.1-2,2.6-3.3,2.6c-1.5,0-2-2.5-5-5.7
							c-1.7-1.8-3.8-4.1-5.8-3.7c-2.7,0.5-3.5,5.6-4.6,5.3c-1.4-0.2,0.5-8.1-3.3-11c-2.3-1.8-4.3,0.3-6.9-1.5
							c-3.4-2.3-2.5-7.1-5.8-8.4c-1.4-0.5-2.1,0.2-3.3-0.7c-1.1-0.8-1.4-2.2-1.9-5.1c-1.1-6-1.2-6.8-1.9-7.4c-0.9-0.7-2.6-0.9-6.4,1
							c-0.2-3-0.6-7.4-2-11.8c-1.2-3.8-2.3-5.3-2.8-5.9c-1.2-1.4-1.8-1.5-2.6-2.8c-1.4-2.2-0.6-3.9-1-6.7c-0.7-4.9-3.7-5.2-5.3-11.2
							c-0.4-1.3,0-0.5-0.8-5.7c-1.6-10.9-3.1-13.1-4.6-14c-0.4-0.2-1.2-0.6-2-1.6c-1.2-1.4-1.2-3-1.3-3.6c-0.4-4.6-2.2-8.9-2.6-13.5
							c-0.6-8.4-4.3-19.4-6.9-30.2c-2.3-9.8-4.8-24-5.2-43.2c3.5,10.3,20,58.5,30.6,64.1c0.7,0.4,2.6,1.4,4,0.6
							c0.6-0.4,3-2.3-2.7-21.9c-4.6-15.9-8.2-21.5-5-27.7c0.4-0.7,1.9-3.5,4.8-5.2c8.1-4.5,18.9,4,27.7,7.5
							c24.9,10.1,39-13.5,78.8-10c12,1.1,26.5,2.3,33.5,13.2c9.5,14.6,0.6,38.9-2.4,38.9c-0.4,0-0.6-0.4-1.9-2.8
							c-3.1-6.1-4.6-9.1-6-12.6c-2.8-7.3-19.4-12.5-34.9-12.2c-24.9,0.5-30.7,14.7-45.8,9.2c-6.1-2.2-10.8-6.6-21.9-8.1
							c-5.1-0.7-8.9-1.2-12.5,0.8c-8.8,4.9-9.4,21.3-5.7,32.5c3.6,11,13.3,22.4,20,20.7c3.3-0.9,5.3-4.5,5.8-5.3
							c2.9-5.3,1-10.7,0.7-11.5c2,1.2,4.2,2.3,6.6,3.3c17.9,7.4,35.8,2.6,44.8-0.6c-2.6,7.2-2.2,13.9,1.5,17
							c3.3,2.8,8.3,1.5,14.6-0.4c5.7-1.7,25.7-7.7,31.5-25.4c1-3.2,1.3-5.8,1.5-7.4c22.9-7,55.9-21.8,65.3-50.5
							c2.6-7.9,1.9-21.5-0.1-48.4c-2.2-31.6-8-64.5-8-64.5s1.7-0.3,5.1-1c13.2-2.6,15.7-3.7,20-3.1
							C1125.2,224,1128.7,225,1132.8,228.2z"/>
						<path id="beard-dark_1_" class="st13" d="M1130.5,329.3c2.3,0.5,0.9,18.6-0.5,31.3c-0.9,8.1-1.9,16.1-4.1,25
							c-0.4,1.6-2.3,6.5-3.6,11.9c-1.2,4.6-1.7,7-1.7,7c0,1.2,0.2,3-0.9,3.6c-0.6,0.4-1.2-0.2-1.9,0.2c-1,0.5-0.6,2.1-1.2,4
							c-0.7,2.2-1.9,1.9-3.3,4.3c-1.7,3.1-0.2,4.6-1.9,7.1c-1.4,2.1-2.7,1.2-4.1,3.1c-2.7,3.6,0.5,8.9-1.7,10.4
							c-1.4,0.9-3-0.9-4.4,0.2c-1.8,1.2-0.1,4.6-2,6.3c-1.3,1.2-2.6,0.2-3.7,1.4c-2,1.9-0.5,6.4-1.4,6.6c-0.6,0.2-1.2-1.8-2.2-1.8
							c-0.9,0-1.8,1.5-4.1,8.3c-1.5,4.3-1.6,5-2.7,6.1c-1.7,1.7-2.7,0.9-5.5,2.7c-1.2,0.7-4.7,2.9-6,6.8c-0.8,2.5-0.3,4.6-1.5,5.1
							c-0.8,0.4-1.2-0.5-2.4-0.4c-2.4,0.2-4.6,3.5-5.5,6.3c-0.5,1.6-0.5,2.9-1,2.9c-0.8,0.2-1.2-2.3-2.4-2.6
							c-1.8-0.4-4.3,3.7-6.1,6.9c-2,3.3-2.6,5.1-4.2,5.3c-1.3,0.2-1.7-0.8-3.5-0.8c-2.1,0-4.2,1.5-5.3,3.3c-1.7,2.8-0.3,5.4-1.8,6.3
							c-0.9,0.5-1.7-0.5-4.1-0.8c-0.2,0-5-0.5-7.3,2.2c-1.5,1.7-0.9,3.4-2.3,4c-1.3,0.5-2.1-1-4.1-0.9c-1.9,0.1-2.5,1.5-5.5,3.5
							c-2.2,1.5-3.4,2.3-5.1,2.6c-4.3,0.5-7.3-3-9-1.8c-1.5,1.1,0.4,4.5-1,5.7c-2.1,1.6-7.4-4.3-11.2-2.6c-2.3,1.1-1.9,4.2-4.1,4.6
							c-2.5,0.5-4.3-3.3-6.4-2.6c-1.8,0.6-1.4,3.9-2.8,4.1c-1.4,0.2-2.1-3.1-5.7-5.3c-0.5-0.3-4.2-2.6-6.4-1.3
							c-2.3,1.4-1.6,6-2.6,6.1c-0.8,0.1-0.8-3-3.1-5.1c-1.8-1.5-4.6-2.3-6.9-1.5c-2.7,0.9-2.7,3.2-4.3,3.3c-3.6,0.3-6.3-9.9-9-9.5
							c-1.8,0.3-2.2,4.7-3,4.6c-0.8-0.1-0.4-3.4-1.8-7.1c-1.6-4.3-5.1-8-6.7-7.4c-1.6,0.6-0.9,5.6-1.5,5.7c-0.5,0.1-1.4-3.3-3.1-9.8
							c-1.3-4.9-1.9-7.2-3.3-7.4c-1.4-0.2-2.2,1.9-3.3,1.5c-1.9-0.5,0.4-8.8-2-10c-0.8-0.4-1.3,0.3-2.2-0.2
							c-0.9-0.5-1.1-1.6-1.6-5.3c-0.6-4-0.5-4.1-0.8-4.6c-1.2-2.6-2.9-1.9-4.3-4.2c-1.9-3.2,0.5-6.6-1.6-8.4c-1.1-0.9-1.8-0.2-3-1
							c-1.9-1.2-1.3-4-1.9-9.8c-0.7-7.5-2.2-8.9-3-9.5c-1.4-0.9-1.9-0.2-3.1-1c-2.7-1.9-0.9-6.4-3.3-14.6c-0.2-0.5-0.1-0.2-0.7-2.2
							c-1.2-3.8-2.5-7.9-3.7-12.4c-5.5-19.7-10.5-44.4-12.1-73.4v0.2c5.2,29.1,9.9,55.4,28,69.9c4.2,3.3,5.4,3.2,8.2,6.4
							c8.5,10,5.3,22.4,6.7,33.8c2.1,17.7,15.1,33.2,25.6,39.7c31.3,19.3,91-10.5,95.7-39.9c1.9-11.6-5.1-21.7,2-33
							c4.6-7.3,12.2-10.4,20.2-13.6c19.7-7.8,27.3-2.5,38.3-6.9C1125,380.1,1126.6,328.6,1130.5,329.3z"/>
						<path id="beard-light_1_" class="st14" d="M947.9,408.6C947.9,408.6,947.9,408.5,947.9,408.6c0.2-0.9,8.5,3.3,17.9,2.8
							c4.8-0.2,17.7-2.1,19.8-2.4c0,0,0,0,0.1,0c0.9,0.2-0.2,6.2,0.5,13.3c0.4,4.3,0.9,4.2,0.9,5.9c-0.4,7.3-10.8,16.4-21.9,16
							c-14.9-0.5-24.9-17.7-22.2-23.9C943.4,419,948.3,409.9,947.9,408.6z"/>
					</g>
					<g id="beard-confused" class="st9">
						<path id="beard-base_3_" class="st15" d="M1068.9,143.6c-1.4,0.6-3.4,1.8-5.2,3.7c-8.3,8.6-6.4,25.8-6.4,25.8
							c0.3,5.6,0.7,14.1,1.2,24.6c0.5,11.9,0.5,11.7,0.7,13.5c1.1,10.8,2.8,15.7,2.6,26.1c-0.1,3.1-0.2,3.5-0.3,6.3
							c-0.5,13.7,2.9,23.3,4.5,30.6c0.7,2.9,4.6,21-0.6,40.4c-3.3,12.1-10,24.4-6.3,32.7c0.6,1.2,2.2,4.2,1.3,7.6
							c-0.6,2.5-2.2,3.5-5,7.3c-2.3,3.2-3.4,4.8-3.9,6.6c-1.6,5.1,0.7,8.9-1.1,10c-1.4,0.9-3.4-1.3-4.6-0.4
							c-1.6,1.2,1.4,5.3,0.2,9.9c-1.1,4.3-4.5,3.2-7.3,8.6c-2.1,4.1-0.9,6-3.8,11.9c-0.6,1.3-1.4,2.6-2.3,3.9
							c-1.5,2.2-3.5,4.4-4.8,5.9c-5.4,6.2-7.2,6.6-9.2,10.2c-2.6,4.6-0.7,5.6-3,9.2c-3.4,5.5-7.6,3.6-12.9,8.9
							c-5.8,5.9-2.9,10.5-8.9,14.5c-2.8,1.8-5.5,2.3-6.9,5.3c-1.2,2.6,0,4.1-1.3,5.6c-2.3,2.6-7.2-1-10.6,1.3
							c-4.3,2.9-1.9,12.3-4.3,12.9c-1.7,0.4-2.8-4-5.3-4c-3.6,0-3.7,9.2-10.6,12.6c-3.1,1.5-3.8-0.1-6.9,1.7
							c-5.3,2.9-5.6,8.6-9.2,8.9c-2.1,0.2-2.4-1.7-4.6-1.5c-3.7,0.2-4,5.2-8.6,7.5c-4,1.9-5.6-1-10.9,0.7s-5.5,5.1-9.6,5.3
							c-3.9,0.1-4.7-3-8.3-2.6c-4,0.4-4.1,4.3-8.6,5.3c-3.9,0.8-5-1.9-8.9-1c-4.1,0.9-4,4.1-7.6,4.6c-4.2,0.6-6.2-3.6-9.6-2.5
							c-3,1-3.6,5.1-5.1,4.8c-1.4-0.2-0.7-3.9-3.2-6.3c-2.4-2.2-7-2.4-10-0.8c-2.5,1.4-2.6,3.3-4.2,3.3c-2,0-2.6-3.2-6.4-7.3
							c-2.2-2.3-4.9-5.3-7.5-4.8c-3.5,0.6-4.5,7.2-5.9,6.9c-1.8-0.3,0.6-10.5-4.3-14.2c-3-2.3-5.5,0.4-8.9-2
							c-4.4-3-3.2-9.2-7.5-10.8c-1.8-0.7-2.7,0.2-4.2-0.9c-1.4-1-1.8-2.9-2.4-6.6c-1.4-7.7-1.5-8.8-2.4-9.5
							c-1.1-0.9-3.4-1.2-8.3,1.3c-0.2-3.9-0.8-9.5-2.6-15.2c-1.6-4.9-3-6.8-3.6-7.6c-1.5-1.8-2.3-2-3.3-3.6c-1.8-2.9-0.8-5-1.3-8.6
							c-0.9-6.3-4.8-6.7-6.9-14.5c-0.5-1.7,0-0.7-1-7.3c-2.1-14.1-4-16.9-6-18.1c-0.5-0.3-1.6-0.8-2.6-2.1c-1.5-1.8-1.6-3.9-1.7-4.6
							c-0.5-5.9-2.9-11.5-3.4-17.4c-0.8-10.9-5.6-25.1-8.9-39c-3-12.6-6.2-31-6.7-55.8c4.5,13.3,25.8,75.5,39.5,82.7
							c0.9,0.5,3.4,1.8,5.1,0.8c4.2-2.5-0.4-17.8-3.5-28.3c-4.6-15.3-8-20.8-5-27c2.1-4.2,5.8-6.3,7.6-7.3
							c12.3-6.6,27.8,0.5,35.4,3.2c32.4,11.5,44.6-12.1,100.3-8.1c20.8,1.5,35.3,2.8,42.8,14c11.2,16.8,0.2,47-3.7,46.9
							c-0.6,0-0.9-0.6-2.4-3.6c-3.5-7-5.3-10.5-7.7-16.2c-4.7-11-33.2-11-44.6-11c-35.3-0.1-36.3,8.5-56.9,4
							c-6.1-1.3-16.5-4.4-30.9-3.5c-7.4,0.5-12.2,0.8-16.7,4.2c-9.8,7.4-10.5,23.8-6.8,35c4,12.1,15.4,25.2,25.6,23.5
							c5.9-1,9.2-6.8,9.5-7.3c3.1-5.5,2.4-12.7-1.6-18.7c3.1,1.5,6.4,3,10,4.2c23.1,8.1,44.8,5,58.7,1.4c-1.2,1.6-5,7.4-4,14.9
							c0.3,1.9,0.9,6.5,4.2,9.1c3.1,2.4,7.9,2.7,18.4-0.8c15.2-5,34.7-11.5,41-29.2c1.4-3.9,1.8-7.4,1.9-9.6
							c29.6-9.1,72.2-28.1,84.3-65.2c3.3-10.2,2.4-27.7-0.1-62.5c-2.9-40.8-10.3-83.2-10.3-83.2s2.2-0.4,6.6-1.3
							c17-3.4,20.3-4.8,25.8-4C1059.1,138.3,1063.6,139.5,1068.9,143.6z"/>
						<path id="beard-dark_2_" class="st16" d="M1066,274.2c3,0.6,1.1,24-0.6,40.4c-1.1,10.5-2.4,20.8-5.3,32.3
							c-0.5,2.1-3,8.4-4.6,15.3c-1.5,6-2.2,9-2.2,9.1c0,1.5,0.2,3.9-1.1,4.6c-0.8,0.5-1.5-0.2-2.4,0.2c-1.3,0.7-0.8,2.7-1.5,5.1
							c-0.9,2.9-2.5,2.5-4.2,5.5c-2.2,4-0.2,6-2.4,9.2c-1.8,2.7-3.5,1.6-5.3,4c-3.5,4.6,0.6,11.5-2.2,13.4c-1.8,1.2-3.9-1.1-5.7,0.2
							c-2.3,1.6-0.1,5.9-2.6,8.1c-1.7,1.5-3.3,0.3-4.8,1.8c-2.6,2.5-0.6,8.2-1.8,8.5c-0.8,0.2-1.5-2.3-2.8-2.3
							c-1.1,0-2.3,1.9-5.3,10.7c-1.9,5.5-2.1,6.5-3.5,7.9c-2.2,2.2-3.5,1.2-7.1,3.5c-1.5,0.9-6.1,3.7-7.8,8.8c-1,3.2-0.4,5.9-2,6.6
							c-1,0.5-1.6-0.6-3.1-0.5c-3.1,0.2-6,4.5-7.1,8.1c-0.6,2.1-0.6,3.7-1.3,3.8c-1,0.2-1.5-3-3.1-3.3c-2.3-0.5-5.5,4.8-7.9,8.9
							c-2.6,4.3-3.3,6.6-5.4,6.9c-1.7,0.3-2.2-1-4.5-1c-2.7,0-5.4,2-6.8,4.3c-2.2,3.6-0.4,7-2.3,8.1c-1.2,0.7-2.2-0.6-5.3-1
							c-0.3,0-6.4-0.7-9.4,2.8c-1.9,2.2-1.2,4.4-3,5.1c-1.7,0.7-2.7-1.3-5.3-1.2c-2.4,0.1-3.2,1.9-7.1,4.5c-2.8,1.9-4.4,3-6.6,3.3
							c-5.6,0.7-9.4-3.9-11.6-2.3c-1.9,1.4,0.5,5.8-1.3,7.3c-2.7,2.1-9.6-5.6-14.5-3.3c-3,1.4-2.5,5.4-5.3,5.9
							c-3.2,0.7-5.6-4.2-8.3-3.3c-2.3,0.8-1.8,5-3.6,5.3c-1.8,0.3-2.7-4-7.3-6.9c-0.6-0.4-5.4-3.4-8.3-1.7c-3,1.8-2.1,7.8-3.3,7.9
							c-1,0.1-1-3.9-4-6.6c-2.3-2-6-3-8.9-2c-3.5,1.1-3.5,4.1-5.6,4.3c-4.6,0.4-8.1-12.8-11.6-12.2c-2.3,0.4-2.8,6.1-3.9,6
							c-1-0.1-0.5-4.4-2.3-9.2c-2.1-5.5-6.6-10.3-8.6-9.6c-2.1,0.8-1.2,7.2-2,7.3c-0.7,0.1-1.8-4.3-4-12.6c-1.7-6.3-2.5-9.3-4.3-9.6
							c-1.8-0.3-2.9,2.4-4.3,2c-2.4-0.7,0.5-11.4-2.6-12.9c-1-0.5-1.7,0.4-2.8-0.2c-1.2-0.6-1.4-2.1-2.1-6.8c-0.8-5.2-0.7-5.3-1-6
							c-1.5-3.3-3.8-2.5-5.6-5.4c-2.5-4.1,0.6-8.5-2.1-10.8c-1.4-1.2-2.3-0.3-3.9-1.3c-2.4-1.5-1.7-5.2-2.4-12.6
							c-0.9-9.7-2.9-11.5-3.9-12.2c-1.8-1.2-2.4-0.2-4-1.3c-3.5-2.5-1.1-8.2-4.2-18.8c-0.2-0.7-0.1-0.3-0.9-2.9
							c-1.6-4.9-3.2-10.2-4.8-16c-7.1-25.4-13.5-57.3-15.6-94.8v0.2c6.7,37.5,12.8,71.5,36.1,90.2c5.4,4.3,7,4.1,10.6,8.3
							c11,12.9,6.9,28.9,8.6,43.6c2.7,22.9,19.5,42.9,33,51.2c40.4,24.9,117.4-13.6,123.5-51.5c2.4-15-6.6-28,2.6-42.6
							c6-9.4,15.7-13.4,26.1-17.5c25.4-10.1,35.3-3.2,49.5-8.9C1058.9,339.8,1060.9,273.2,1066,274.2z"/>
						<path id="beard-light_2_" class="st17" d="M830.3,368.5C830.3,368.5,830.3,368.4,830.3,368.5c5.4,1.8,12.1,3.5,19.9,4.4
							c11.6,1.3,21.6,0.4,28.8-0.9c0,0,0,0,0.1,0c1.1,0.2-0.2,8,0.6,17.2c0.5,5.6,1.2,5.4,1.1,7.6c-0.5,9.4-14,21.2-28.3,20.7
							c-19.2-0.6-32.1-22.8-28.7-30.8C824.5,384.9,830.8,370.2,830.3,368.5z"/>
					</g>
				</g>
				<g id="nose">
					<path id="nose-shadow_1_" class="st4" d="M944.2,257.2c-2.6-0.8-5.3,0.4-6.8,2.8c-3.3,13.6-6.5,24.2-8.8,31.7
						c-2.4,7.6-4,15.4-7,22.8c-2.3,5.8-3.8,8.6-3.5,13.1c0.5,5.8,3.6,10.1,7.8,15c4.4,5.1,7.6,8.8,13.2,10.5
						c3.6,1.2,9.5,0.2,9.4-0.1c-5.4-15.9-11.5-41.6-5.7-71.4c1.4-7.2,3.3-13.7,5.4-19.6C947.9,259.7,946.3,257.8,944.2,257.2z"/>
					<path id="nose-outline_1_" class="st7" d="M983,334.2c-19.2,13.1-34.8,20.1-39,19.8c-2.7-0.2-5-0.9-5-0.9
						c-2.2-0.9-3.6-2.3-4.6-3.3c-9.1-9.1-11.2-10.6-14.3-16c-0.4-0.7-0.6-1.1-0.8-1.4c-0.7-1.5-2.9-7.3,3.3-20
						c0.1-0.1,0.1-0.2,0.2-0.2c2.9-5.8,7.4-20.5,14.5-53.5"/>
				</g>
				<g id="mask_1_" class="st9">
					<path id="mask-base_1_" class="st18" d="M1069,341.3c-34.7-19.9-69.4-39.9-104.1-59.8c-0.4-0.5-8.1-10.6-21-9.3
						c-12.8,1.3-18.3,12.6-18.7,13.2c-16.1,18.3-32.3,36.5-48.4,54.9c-0.9,15.3-0.4,38.5,7.8,64.7c3.7,11.9,27,86.7,75.2,93.9
						c39.5,6,90.2-34.2,108-101.7L1069,341.3z"/>
					<path id="mask-shadow_1_" class="st19" d="M943.3,308.5c0.2,3.7,1.2,21.9,14.7,32.8c9.6,7.7,14.7,3,26.9,9.6
						c13.3,7.1,26.5,22.8,26.7,40.2c0.3,17.5-12.5,30.2-17.1,34.8c-24.6,24.7-54.2,16.4-59.6,33.2c-3.1,9.5,3.4,21.5,11.1,27.3
						c19.9,15.1,56.9-4.2,72-14.9c51.7-36.6,49.5-114.8,48.9-128.4c-13.8-12.9-24.8-15.4-32.6-15.3c-6.7,0.2-8.5,2.4-16.5,2
						c-2.6-0.1-18-0.5-28.2-10.9c-9.2-9.2-4.5-16.5-13.7-25.9c-6.7-6.8-18.7-12.9-26.2-8.5C942.2,288.9,942.9,301.7,943.3,308.5z"/>
					<path id="mask-outlet-shadow_1_" class="st20" d="M913.2,369.9c-12.9,18.7-5.9,46,11.4,57.1c13.9,8.9,29.4,4.4,31.5,3.7
						c16.3-5,30.1-21.4,28.8-40.9c-1.1-16.5-12.8-31.4-29.6-35.7C938.8,349.8,921.9,357.2,913.2,369.9z"/>
					<circle id="mask-outlet_1_" class="st19" cx="941.6" cy="393.9" r="37.2"/>
					<path id="mask-nose-clamp_1_" class="st21" d="M934.3,297.1c-2.4,3.1-3.5,5.9-3.9,7c-4.6,11.8-9.3,25.9-10.7,30.1
						c4.2-9.2,7.1-16.6,9-21.9c2-5.3,3.7-10.6,8.8-14.3c3.8-2.7,6.8-2.9,7.4-2.9c4.3-0.1,7.6,2.6,9.3,4.2
						c13.6,11.9,37.2,36.5,37.2,36.5s2.3,0.9,3.4,0.2c0.5-0.3,1-1,1.1-3c-13.2-12.9-26.3-25.6-39.4-38.5c-0.8-1-4.7-5.8-10.3-5.6
						C940.5,289,936.7,294,934.3,297.1z"/>
					<path id="mask-band-right_1_" class="st22" d="M871.5,334.6c1.4,1.1,11.1,9.1,11.2,22.3c0.2,9.1-4.3,15.5-5.9,17.6
						c0.2,1.8,0.5,3.6,0.8,5.3c2.2-2.8,7.4-10.3,7.8-21c0.5-17.5-12.4-28.5-14.1-29.9C871.3,330.8,871.4,332.7,871.5,334.6z"/>
					<path id="mask-band-left_1_" class="st22" d="M1068.9,341.3c19.5-38.3,39-76.7,58.6-115.1c1.1,1.4,2.2,2.7,3.2,4.2
						c-20.5,38.6-41.1,77.3-61.6,115.9c-13.7,0.2-24.1,11.8-23.3,24.2c0.8,11,10.3,20.4,22.3,21c16.2,9,32.5,18,48.8,27
						c-0.8,1.6-1.6,3.4-2.4,5c-15.6-8.8-31.2-17.6-46.8-26.3c-14.6-1.3-25.9-13.6-25.7-28.1C1042.2,354.3,1054,342,1068.9,341.3z"/>
					<path id="mask-breather_1_" class="st23" d="M969.7,377.1c1.8,2.6,5.5,8.7,6,17.3c0.4,7.2-1.6,12.9-2.8,15.7
						c0.8,0.7,1.9,1.3,3.1,1.2c4.3-0.8,5.1-13.7,5.2-15.3c0.6-10.2-1.7-23.7-6-24.1C973.8,371.7,972,372.7,969.7,377.1z"/>
				</g>
				<g id="wrinkles">
					<g id="wrinkles-smile">
						<path id="_x3C_Path_x3E__1_" class="st7" d="M899.7,359.8c-0.7-2.3-1.2-5.5-0.7-9.1c0.9-6.2,4.5-10.1,6.3-12
							c2.4-2.6,4.9-4.3,6.7-5.2"/>
						<path id="_x3C_Path_x3E_" class="st7" d="M1001.6,324.8c1.8,2.2,4.4,4.9,7.7,7.7c3.5,2.9,6.4,4.8,8.4,6
							c0.9,0.5,5,3.1,10.8,5.8c5.7,2.6,7.4,2.9,11,5.4c1.9,1.2,3.6,2.5,5.2,4.5c3.9,4.8,4,10.9,3.8,14.2"/>
					</g>
					<g id="wrinkles-forehead_1_" class="st9">
						<path class="st24" d="M792.2,84.1c2.2,0.1,5.4,0.3,9.2,1.2c5,1.2,6.2,2.3,11,3.6c3,0.8,7.6,2,13.3,1.5c1.1-0.1,6.8-0.7,12.9-4
							c4.8-2.6,5.6-4.5,10.5-6.9c3.5-1.6,6.6-2.3,8.6-2.6"/>
						<path class="st24" d="M738.4,99.4c6.6-2.9,13.9-5.8,21.8-8.4c4.5-1.5,9-2.8,13.2-4"/>
						<path class="st24" d="M738.9,109c27.1-12.9,46-13.6,58.5-11.6c5.2,0.8,14.9,3,28.4,1.7c11.8-1.1,19.9-4.3,24.9-6
							c34.4-11.9,77.1-9.6,108.8,1.4c3.7,1.3,6.6,2.5,8.3,3.2"/>
						<path class="st24" d="M901,75.9c14.3-0.7,33.9,0.3,55.3,7.9c6.7,2.3,12.6,5,18,7.8"/>
					</g>
				</g>
				<g id="ear">
					<path id="ear-shadow" class="st4" d="M1130.5,276.1c-0.2-1.8-0.6-4.3-0.9-7.3c-0.5-5.6-0.3-6.6,0.4-7.4c2-2.4,7.1-1.2,7.4-1.1
						c5.6,1.5,10.5,9.5,9.3,16.8c-0.6,4-3.3,9.8-7.3,10.1c-3.3,0.2-6.1-3.3-6.3-3.6C1133.2,283.6,1132.3,282.4,1130.5,276.1
						L1130.5,276.1z"/>
					<path id="ear-outline" class="st7" d="M1141.3,263.4c0.9,0.9,5.6,6.2,4.7,13.3c-0.5,4.3-3.1,10.8-7.3,11
						c-3.6,0.2-8-4.3-8.9-11.1c-2.5-14.1,4.7-38.3,9.9-37.7c2.6,0.2,4.6,3.3,5.3,4.6c3.7,6.8,2,13.8,2,13.8"/>
				</g>
				<g id="eyes">
					<g id="left-eye_1_">
						<path id="left-eye-base" class="st25" d="M1006.6,245.6c13.2-3.2,28.3,5.4,27.8,10.5c-0.5,5.3-17.7,7.3-18.6,7.4
							c-9.3,1-23.4-0.2-24.6-5.3C990.3,254,998.5,247.5,1006.6,245.6z"/>
						<g>
							<path class="st0" d="M1006.6,245.6c-8.1,1.9-16.3,8.4-15.3,12.6c1.1,4.7,12.9,6,22,5.5c-2.9-1.5-4.9-4.5-4.9-8
								c0-4.9,4-8.9,8.9-8.9s8.9,4,8.9,8.9c0,2.5-1,4.8-2.7,6.4c5-1.1,10.7-3.1,10.9-6.1C1034.9,251,1019.8,242.4,1006.6,245.6z"/>
							<path class="st26" d="M1026.2,255.7c0-4.9-4-8.9-8.9-8.9s-8.9,4-8.9,8.9c0,3.5,2,6.5,4.9,8c0.9-0.1,1.7-0.1,2.5-0.2
								c0.4-0.1,3.9-0.5,7.7-1.4C1025.1,260.5,1026.2,258.2,1026.2,255.7z"/>
						</g>
						<circle id="left-eye-pupil" class="st27" cx="1017.3" cy="255.9" r="4.6"/>
						<circle id="left-eye-reflection" class="st25" cx="1020.4" cy="252" r="1.9"/>
						<g id="left-lid">
							<path id="_x3C_Path_x3E__5_" class="st28" d="M1041.8,258.5c0.6,0.5,13.6,5,19.4,2.1"/>
							<path id="_x3C_Path_x3E__4_" class="st28" d="M980.9,257.7c2.6-4.2,6.6-8.8,12.4-12.1c10.8-6.4,25.5-6.9,36.2-1.4
								c6.5,3.3,7.7,6.9,15.6,9.5c6,1.9,11.5,1.9,15.2,1.6"/>
						</g>
					</g>
					<g id="right-eye">
						<path id="right-eye-base_1_" class="st25" d="M906.2,250.8c8,0.2,16.9,5.3,16.8,10.1c-0.2,5.3-11.2,9.5-19.8,9.8
							c-6.9,0.2-17-1.9-17.9-6.5C884.3,258.9,895.3,250.4,906.2,250.8z"/>
						<circle id="right-eye-iris_1_" class="st26" cx="904" cy="261.5" r="8.9"/>
						<circle id="right-eye-pupil_1_" class="st27" cx="904" cy="261.7" r="4.6"/>
						<circle id="right-eye-reflection_1_" class="st25" cx="906.3" cy="258" r="1.9"/>
						<path id="right-lid_1_" class="st28" d="M922.1,251.9c-1.4-0.9-14.3-8.8-28.2-3.1c-7.7,3.2-11.9,9.1-13.6,11.6"/>
					</g>
				</g>
				<g id="eyebrows">
					<g id="left-brow">
						<path id="left-brow-shadow" class="st4" d="M970.9,234c-1.7-0.8-6-3-9-8c-3.7-6-3-12.1-2.8-13.8c17.1-1.1,30.9-2.4,40.3-3.3
							c12.5-1.2,18.3-1.6,27.8-1.5c17.3,0.2,27.4,2.5,33.8,10.1c4.6,5.5,5.7,12.1,6,16.4c-4.4-0.2-11-0.6-19-1.7
							c-8.5-1.2-8.8-1.7-15.7-2.7c-7.7-1.1-19.5-2.1-33.5-0.7c-5.7,0.5-10.1,1.5-15,2.4C978.5,232.2,974.1,233.2,970.9,234z"/>
						<path id="left-brow-base" class="st12" d="M965.6,218.4c-3.1,0.2-5.8-1.8-6.7-4.6c-0.9-3.1,0.7-6.6,3.9-7.9
							c6.6-2.3,65.3-22,94.3,7.3c2.9,2.9,5.6,6.4,8,10.8c-5.3-3.9-13.6-8.8-24.5-12.1c-17.5-5.2-32.5-2.9-45.7-0.9
							C987.3,212.2,977.2,214.2,965.6,218.4z"/>
					</g>
					<g id="right-brow">
						<path id="right-brow-shadow_1_" class="st4" d="M924.5,237.6c1.2-1.2,3.1-3.3,4.4-6.4c1.9-4.6,1.4-8.9,1.1-10.6
							c-2.1-1.1-29.8-15.6-49.6-2.2c-2.7,1.9-5.9,4.6-8.8,8.9c-0.3,0.6-1.9,4-0.5,7.7c0.7,1.8,1.9,3,2.6,3.6
							c4.8-2.2,12.6-5.1,22.5-5.7C909.1,232,919.1,235.4,924.5,237.6z"/>
						<path id="right-brow-base_1_" class="st12" d="M929,227.1c0.5-1.2,1.2-3.5,1-6.4c-0.2-3-1.4-5.3-2.1-6.3
							c-3.2-1.4-26.6-11.4-43-3.7c-3.8,1.8-10.8,5-12.9,11.9c-0.8,2.5-0.7,4.7-0.5,6.3c3.2-3.2,7.8-6.6,13.9-8.9
							C906.3,212.3,926.2,225.2,929,227.1z"/>
					</g>
				</g>
				<path id="glasses_1_" class="st29" d="M1129.8,219.4c-0.6-0.3-1.2-0.5-1.2-0.5c-3-0.9-5.7,0.6-6.7,0.8
					c-13.9,2.7-21.9,5.7-35.5,8.7c-1.1,0.2-2.7,0.6-4.6,1c-0.9-0.4-1.9-0.8-3.3-1.1c0,0-1.2-0.2-2.5-0.3c-2.9-0.3-4.3,0.5-8.4,1.3
					c-2.9,0.6-5.7,1.2-8.9,1.2c-2.6,0-3.1-0.4-9.5-1.2c-2.7-0.3-3.8-0.4-7-0.8c-9.4-1-11.2-1.5-16.2-1.9c-11.3-1.1-20.5-0.4-25.2,0
					c-11.2,0.9-18.7,2.7-26.3,4.6c-15.2,3.7-18.2,6.5-20,8.6c-2.1,2.6-2.7,4.7-5.7,6c0,0-5.1,2.2-12.9-1.3c-2.2-1-3.7-2.2-4-2.4
					c-3.6-2.7-10.8-5.6-26.5-7c-5.3-0.3-13.2-0.6-24.2,0.2c-7.4,0.5-16.9,1.8-27.9,4.3c-1,0.7-2.2,1.5-3.6,2.2
					c-2.3,1.1-5.7,2.2-9.8,2.3c0,0-4.6,8.1,1.2,12.2c6,4,5.5,10.2,5.5,10.2s1.8,21.8,11.9,34.6c10.1,12.7,50.7,7,50.7,7
					c3.2-0.1,9.2-0.7,13.7-5c3-2.9,4.2-6.1,4.9-8.2c7.1-21.1,5.9-32.5,12.5-35.6c3.4-1.6,7.6-0.5,9.9,1.1c2.6,1.7,2.1,3.3,6.3,11.7
					c0,0,3.3,6.6,8.1,14.3c0.8,1.2,1.5,2.2,2.1,3.2c1.4,2.1,3.1,4.6,4.3,6.2c2.8,3.5,6,5.4,7.7,6.4c3.3,2,7.8,3.8,18.7,4.4
					c11.2,0.7,19.6-0.7,36.3-3.4c0,0,3.9-0.6,11.3-3.4c0.5-0.2,1.5-0.5,2.6-1.4c1.4-1,2.3-2.2,2.8-3c1.2-1.5,4.8-6.4,6.4-14.4
					c3.2-17-0.3-27.4,0.3-36.4c0.2-2.9,9.4-5.5,15.7-5.9c0.9-0.1,2.4-0.2,4.3-0.9c2-0.9,2.4-2.3,4.6-3.4c1.3-0.6,2.5-0.8,3.2-0.9
					c3.8-0.5,11.4-2.4,25.9-6c8-1.9,11-3.2,14.2-1.3c2.1,1.2,3.3,3.3,3.9,4.8c2.1-1.4,4.2-2.8,6.4-4.2
					C1134.6,225.3,1133.1,221,1129.8,219.4z M928.2,282.1c-3.2,9.8-4.8,15.2-9.7,18.9c-3.6,2.8-10.5,3.3-24.1,3.9
					c-23.1,1.1-28-2.2-30.7-4.8c-1.9-1.8-3-3.7-5.3-7.7c-4.5-7.8-5.6-12.2-6.8-18.6c-0.9-5-2.1-10.8-0.6-18.4c0.4-2.2,0.9-4,1.4-5.3
					c6.9,0.5,13.7,1,20.6,1.5c-0.2-0.6-0.4-1.3-0.6-1.9c-0.2-0.7-0.5-1.4-0.6-2.2c-1.2-0.1-2.9-0.1-4.9-0.2
					c-7.7-0.4-11.6-0.6-11.7-1.2c-0.2-1.3,8.1-4.6,16.6-6.2c5.4-1.1,9.4-1.2,16.3-1.3c16.7-0.4,24.6,1.4,26.7,1.9
					c7,1.5,12.5,3.6,14.7,8.1c0.9,1.7,1.3,4,1.5,5c0.7,3,0.9,6,0.6,9.6C931,271.1,929,278.7,928.2,282.1z M1053.4,268.2
					c0.2,5-0.3,8.8-0.6,11.1c-0.5,4-1.1,5.8-1.4,6.7c0,0-1,2.9-2.7,5.5c-5.3,8.2-27.9,9.9-35,10.5c-6.4,0.5-11,0.4-15.3,0.1
					c-7-0.5-11.8-0.9-16.9-3.7c-6-3.3-9.6-8.5-9.6-8.5l0,0c-3.2-3.8-5.5-7.7-7.7-12.2c-3.3-6.7-10.3-21.1-7.1-30.3
					c1.4-4,4-6.3,4-6.3c1.8-1.5,3.6-2.2,4.6-2.6c14.1-5,33.6-6.7,33.6-6.7c9.1-0.8,14.3-0.9,16-0.9c5-0.1,9.7,0.2,13.9,0.4
					c5,0.3,13.5,1.7,17.5,7.8c0.6,0.9,1,1.9,1.9,3.8c2.2,5.3,2.9,9.5,3.8,15C1052.8,261.6,1053.2,264.3,1053.4,268.2z"/>
				<g id="cap">
					<path id="cap-shadow" class="st4" d="M872.9,198c12-19.8,25.7-31.1,37-37.7c55.9-33.2,145.3-9,222.9,60.5
						c0.1-2,0.2-5.7-0.5-10.2c-11.6-70.7-187.9-131.2-241.6-75.2C882.2,144.1,871.1,161.7,872.9,198z"/>
					<path id="cap-base" class="st30" d="M872.8,201.2c0.3-11,2.7-34.2,19.7-53.1c24.4-27.3,61.4-26.3,77.6-26
						c21.4,0.5,36,6.2,57.8,14.6c0,0,42.9,16.7,86.3,56.3c6,5.5,8.9,9.3,10.6,11.8c7.7,11.2,9.4,21.8,10.7,21.5
						c0.9-0.2-0.2-5.9,0.2-16.4c0.4-9.1,1.5-8.1,1-12.4c-0.8-7.7-4.5-14.8-7.5-20.5c-0.7-1.3-1.3-2.4-1.7-3.1c0.4-2.9,0.6-6,0.5-9.4
						c-0.2-16.3-6.7-29.1-11.6-36.6c-11.2-15.8-29.7-35.8-57.5-47.7c-13.1-5.6-24.2-7.7-33.9-9.5c-14.3-2.6-37.2-6.4-64.9,0.2
						c-20.2,4.8-36.5,13.5-48.7,22.2c-10.4,2.8-27.5,8.9-43.2,23.5c-7.7,7.2-25,23.2-25.5,45.2c0,0.4,0,0.7,0,0.9
						c4.6,19.1,23.9,29.4,23.9,29.4C868.6,195.1,870.7,198.1,872.8,201.2z"/>
					<path id="cap-highlights" class="st31" d="M1072.7,159.7c-14.6-11.7-28.4-20.6-39.7-27.1c-8.9-5.1-20.7-11.3-34.9-17.4
						c-9.7-4.1-25.9-11-39-13.6c-49.5-10-109.2,28.3-108.6,54.2c0.1,4.9,2.4,12.9,1.6,13c-0.8,0.2-4.2-6.6-4.8-12.6
						c-1.5-14.4,12.3-26.8,19.4-33.1c27.3-24,61.5-26.8,66.2-27.1c29.2-1.9,50,7.3,81.4,21.2c27.9,12.4,45.5,25.6,79.3,50.8
						c7.4,5.5,13,10.1,19.1,17.2c16.2,19.1,22,41.4,23.5,40.8c0.9-0.3-1.2-6.7-0.3-17.7l0,0c0.5-2.4,0.9-5.3,0.9-8.4
						c-0.1-11.9-5.9-20.8-8.9-24.8c-3.8-1.9-9.7-4.9-16.8-8.7c-35.2-18.6-48.4-28.3-75.8-42.7c-18.2-9.6-27.3-14.4-38.3-18.5
						c-23.4-8.7-53.7-19.9-85.8-11.6c-35.1,9.1-73.6,42-67.9,70.7c2.6,13.1,13.8,22.3,23.3,28c2,3,4.1,6,6.1,9
						c0.9-30.9,12.3-46.8,18.5-53.7C923.4,112.1,999.2,112.3,1072.7,159.7z"/>
				</g>
			</g>
		</g>
	</g>
	<circle class="st32" cx="68.5" cy="564.5" r="20.5"/>
	<g class="st9">
		<defs>
			<circle id="SVGID_1_" cx="68.5" cy="564.5" r="17.5"/>
		</defs>
		<clipPath id="SVGID_2_" class="st33">
			<use xlink:href="#SVGID_1_"  style="overflow:visible;"/>
		</clipPath>
		<g style="display:inline;clip-path:url(#SVGID_2_);">
			
				<image style="overflow:visible;" width="400" height="400" xlink:href="A4D4EA88.jpg"  transform="matrix(8.694424e-02 0 0 8.694424e-02 51 547)">
			</image>
		</g>
	</g>
</g>
<g>
	<path class="st0" d="M787.4,565.8c18.8-36.7,148,42.8,297.2-4c54.2-17,90-44,115.3-52.2V0H1v630h816.5
		C803.9,615.4,778.1,584.1,787.4,565.8z"/>
	<path class="st3" d="M787.4,565.8c-9.4,18.2,16.5,49.6,30.1,64.2H1200V509.6c-25.4,8.2-61.1,35.2-115.3,52.2
		C935.5,608.7,806.3,529.2,787.4,565.8z"/>
</g>
<g>
	<path class="st0" d="M750.7,0c28.3,210,56.6,420,84.9,630H1200V0H750.7z"/>
	<path class="st34" d="M1,0v630h834.6C807.3,420,779,210,750.7,0H1z"/>
</g>
<g>
	<defs>
		<rect id="SVGID_3_" x="0" width="1200" height="630"/>
	</defs>
	<clipPath id="SVGID_4_">
		<use xlink:href="#SVGID_3_"  style="overflow:visible;"/>
	</clipPath>
	<path class="st35" d="M0,0c0,210,0,420,0,630c400,0,400,0,1200,0c-800,0-800,0-1200,0C0,420,0,210,0,0c400,0,800,0,1200,0
		c0,211.3,0,422.7,0,634"/>
</g>
<g>
	<defs>
		<rect id="SVGID_5_" x="1" width="1199" height="630"/>
	</defs>
	<clipPath id="SVGID_6_">
		<use xlink:href="#SVGID_5_"  style="overflow:visible;"/>
	</clipPath>
	<path class="st36" d="M747.8-45.8c32.1,249.7,64.3,499.4,96.4,749.1"/>
</g>
<g>
	<path class="st37" d="M66.8,572.9v-12.5c0-1.6-0.4-2.7-1.1-3.5s-1.8-1.2-3.4-1.2c-2,0-3.5,0.6-4.4,1.7s-1.4,2.9-1.4,5.4v10.1h-2.9
		v-27.4h2.9v8.3c0,1,0,1.8-0.1,2.5h0.2c0.6-0.9,1.4-1.7,2.5-2.2s2.3-0.8,3.6-0.8c2.4,0,4.1,0.6,5.3,1.7s1.8,2.9,1.8,5.3v12.6H66.8z"
		/>
	<path class="st37" d="M82,570.9c0.5,0,1,0,1.5-0.1s0.9-0.2,1.1-0.2v2.2c-0.3,0.2-0.8,0.3-1.4,0.4s-1.2,0.1-1.7,0.1
		c-3.7,0-5.6-2-5.6-5.9v-11.5h-2.8v-1.4l2.8-1.2l1.2-4.1h1.7v4.5h5.6v2.3h-5.6v11.3c0,1.2,0.3,2.1,0.8,2.7S81,570.9,82,570.9z"/>
	<path class="st37" d="M94.7,570.9c0.5,0,1,0,1.5-0.1s0.9-0.2,1.1-0.2v2.2c-0.3,0.2-0.8,0.3-1.4,0.4s-1.2,0.1-1.7,0.1
		c-3.7,0-5.6-2-5.6-5.9v-11.5h-2.8v-1.4l2.8-1.2l1.2-4.1h1.7v4.5h5.6v2.3h-5.6v11.3c0,1.2,0.3,2.1,0.8,2.7S93.7,570.9,94.7,570.9z"
		/>
	<path class="st37" d="M110.1,573.3c-1.3,0-2.4-0.2-3.4-0.7s-1.9-1.2-2.6-2.1h-0.2c0.1,1.1,0.2,2.2,0.2,3.2v7.9h-2.9v-27.9h2.4
		l0.4,2.6h0.1c0.8-1.1,1.6-1.8,2.6-2.3s2.1-0.7,3.4-0.7c2.6,0,4.5,0.9,5.9,2.6s2.1,4.2,2.1,7.3c0,3.2-0.7,5.6-2.1,7.4
		S112.6,573.3,110.1,573.3z M109.7,555.8c-2,0-3.4,0.5-4.3,1.6s-1.3,2.8-1.4,5.2v0.7c0,2.7,0.5,4.6,1.4,5.8s2.3,1.7,4.3,1.7
		c1.7,0,3-0.7,3.9-2s1.4-3.2,1.4-5.6c0-2.4-0.5-4.2-1.4-5.5S111.4,555.8,109.7,555.8z"/>
	<path class="st37" d="M135.7,567.7c0,1.8-0.7,3.2-2,4.1s-3.2,1.5-5.6,1.5c-2.6,0-4.5-0.4-6-1.2v-2.7c0.9,0.5,1.9,0.8,3,1.1
		s2.1,0.4,3.1,0.4c1.5,0,2.7-0.2,3.5-0.7s1.2-1.2,1.2-2.2c0-0.8-0.3-1.4-1-1.9s-1.9-1.2-3.8-1.9c-1.8-0.7-3.1-1.3-3.8-1.7
		s-1.3-1.1-1.7-1.7s-0.6-1.4-0.6-2.3c0-1.6,0.6-2.8,1.9-3.7s3-1.4,5.3-1.4c2.1,0,4.1,0.4,6.1,1.3l-1,2.4c-1.9-0.8-3.7-1.2-5.3-1.2
		c-1.4,0-2.4,0.2-3.1,0.7s-1.1,1-1.1,1.8c0,0.5,0.1,1,0.4,1.3s0.7,0.7,1.3,1s1.7,0.8,3.4,1.4c2.3,0.8,3.8,1.7,4.6,2.5
		S135.7,566.4,135.7,567.7z"/>
	<path class="st37" d="M140,555.5c0-1.6,0.7-2.4,2.1-2.4c1.4,0,2.2,0.8,2.2,2.4c0,0.8-0.2,1.3-0.6,1.8s-0.9,0.6-1.6,0.6
		c-0.6,0-1.1-0.2-1.5-0.6S140,556.4,140,555.5z M140,571.1c0-0.8,0.2-1.4,0.5-1.8s0.9-0.6,1.5-0.6c0.7,0,1.2,0.2,1.6,0.6
		s0.6,1,0.6,1.8c0,0.8-0.2,1.3-0.6,1.8s-0.9,0.6-1.6,0.6c-0.6,0-1.1-0.2-1.5-0.6S140,571.9,140,571.1z"/>
	<path class="st37" d="M159.7,547.2l-9.6,25.7h-2.9l9.6-25.7H159.7z"/>
	<path class="st37" d="M173,547.2l-9.6,25.7h-2.9l9.6-25.7H173z"/>
	<path class="st37" d="M184.1,573.3c-2.8,0-4.9-0.9-6.5-2.6s-2.3-4.1-2.3-7.3c0-3.2,0.8-5.7,2.3-7.5s3.8-2.6,6.6-2.6
		c0.9,0,1.9,0.1,2.8,0.3s1.7,0.4,2.2,0.7l-0.9,2.5c-0.6-0.3-1.3-0.5-2.1-0.6s-1.4-0.3-2-0.3c-3.9,0-5.9,2.5-5.9,7.5
		c0,2.4,0.5,4.2,1.4,5.4s2.4,1.9,4.2,1.9c1.6,0,3.3-0.3,4.9-1v2.6C187.7,572.9,186.1,573.3,184.1,573.3z"/>
	<path class="st37" d="M210.2,563.3c0,3.1-0.8,5.6-2.4,7.4s-3.8,2.6-6.6,2.6c-1.7,0-3.3-0.4-4.6-1.2s-2.4-2-3.1-3.5
		s-1.1-3.3-1.1-5.3c0-3.1,0.8-5.6,2.4-7.3s3.8-2.6,6.5-2.6c2.7,0,4.8,0.9,6.4,2.7S210.2,560.2,210.2,563.3z M195.5,563.3
		c0,2.5,0.5,4.3,1.5,5.6s2.4,1.9,4.3,1.9s3.4-0.6,4.4-1.9s1.5-3.2,1.5-5.6c0-2.4-0.5-4.3-1.5-5.6s-2.5-1.9-4.4-1.9
		c-1.9,0-3.4,0.6-4.3,1.9S195.5,560.8,195.5,563.3z"/>
	<path class="st37" d="M228.4,570.3h-0.2c-1.3,2-3.4,2.9-6,2.9c-2.5,0-4.5-0.9-5.9-2.6s-2.1-4.2-2.1-7.3s0.7-5.6,2.1-7.4
		s3.4-2.6,5.9-2.6c2.6,0,4.6,0.9,6,2.8h0.2l-0.1-1.4l-0.1-1.4v-7.8h2.9v27.4h-2.4L228.4,570.3z M222.6,570.8c2,0,3.4-0.5,4.3-1.6
		s1.3-2.8,1.3-5.2v-0.6c0-2.7-0.5-4.7-1.4-5.8s-2.4-1.7-4.4-1.7c-1.7,0-3,0.7-3.9,2s-1.4,3.2-1.4,5.6c0,2.5,0.5,4.3,1.4,5.6
		S220.8,570.8,222.6,570.8z"/>
	<path class="st37" d="M245.5,573.3c-2.8,0-5.1-0.9-6.7-2.6s-2.5-4.1-2.5-7.2c0-3.1,0.8-5.6,2.3-7.4s3.6-2.7,6.2-2.7
		c2.4,0,4.3,0.8,5.7,2.4s2.1,3.7,2.1,6.3v1.8h-13.3c0.1,2.3,0.6,4,1.7,5.2s2.6,1.8,4.6,1.8c2.1,0,4.1-0.4,6.2-1.3v2.6
		c-1,0.4-2,0.8-2.9,1S246.8,573.3,245.5,573.3z M244.7,555.8c-1.5,0-2.8,0.5-3.7,1.5s-1.5,2.4-1.6,4.2h10.1c0-1.8-0.4-3.2-1.2-4.2
		S246.2,555.8,244.7,555.8z"/>
	<path class="st37" d="M266.5,573.3c-1.3,0-2.4-0.2-3.4-0.7s-1.9-1.2-2.6-2.1h-0.2c0.1,1.1,0.2,2.2,0.2,3.2v7.9h-2.9v-27.9h2.4
		l0.4,2.6h0.1c0.8-1.1,1.6-1.8,2.6-2.3s2.1-0.7,3.4-0.7c2.6,0,4.5,0.9,5.9,2.6s2.1,4.2,2.1,7.3c0,3.2-0.7,5.6-2.1,7.4
		S269,573.3,266.5,573.3z M266.1,555.8c-2,0-3.4,0.5-4.3,1.6s-1.3,2.8-1.4,5.2v0.7c0,2.7,0.5,4.6,1.4,5.8s2.3,1.7,4.3,1.7
		c1.7,0,3-0.7,3.9-2s1.4-3.2,1.4-5.6c0-2.4-0.5-4.2-1.4-5.5S267.8,555.8,266.1,555.8z"/>
	<path class="st37" d="M282.4,553.7v12.5c0,1.6,0.4,2.7,1.1,3.5s1.8,1.2,3.4,1.2c2,0,3.5-0.6,4.4-1.7s1.4-2.9,1.4-5.4v-10.1h2.9
		v19.3h-2.4l-0.4-2.6h-0.2c-0.6,0.9-1.4,1.7-2.5,2.2s-2.3,0.8-3.6,0.8c-2.3,0-4.1-0.6-5.3-1.7s-1.7-2.9-1.7-5.3v-12.6H282.4z"/>
	<path class="st37" d="M314.9,572.9v-12.5c0-1.6-0.4-2.7-1.1-3.5s-1.8-1.2-3.4-1.2c-2,0-3.5,0.5-4.4,1.6s-1.4,2.9-1.4,5.4v10.1h-2.9
		v-19.3h2.4l0.5,2.6h0.1c0.6-0.9,1.4-1.7,2.5-2.2s2.3-0.8,3.6-0.8c2.3,0,4.1,0.6,5.2,1.7s1.8,2.9,1.8,5.4v12.6H314.9z"/>
	<path class="st37" d="M326.7,563.1c0.5-0.7,1.3-1.7,2.3-2.8l6.2-6.6h3.5l-7.8,8.2l8.3,11.1h-3.5l-6.8-9.1l-2.2,1.9v7.2h-2.9v-27.4
		h2.9v14.5c0,0.6,0,1.6-0.1,3H326.7z"/>
	<path class="st37" d="M348.9,570.9c0.5,0,1,0,1.5-0.1s0.9-0.2,1.1-0.2v2.2c-0.3,0.2-0.8,0.3-1.4,0.4s-1.2,0.1-1.7,0.1
		c-3.7,0-5.6-2-5.6-5.9v-11.5h-2.8v-1.4l2.8-1.2l1.2-4.1h1.7v4.5h5.6v2.3h-5.6v11.3c0,1.2,0.3,2.1,0.8,2.7S348,570.9,348.9,570.9z"
		/>
	<path class="st37" d="M355,571.1c0-0.8,0.2-1.4,0.5-1.8s0.9-0.6,1.5-0.6c0.7,0,1.2,0.2,1.6,0.6s0.6,1,0.6,1.8
		c0,0.8-0.2,1.3-0.6,1.8s-0.9,0.6-1.6,0.6c-0.6,0-1.1-0.2-1.5-0.6S355,571.9,355,571.1z"/>
	<path class="st37" d="M378.1,570.3H378c-1.3,2-3.4,2.9-6,2.9c-2.5,0-4.5-0.9-5.9-2.6s-2.1-4.2-2.1-7.3s0.7-5.6,2.1-7.4
		s3.4-2.6,5.9-2.6c2.6,0,4.6,0.9,6,2.8h0.2l-0.1-1.4l-0.1-1.4v-7.8h2.9v27.4h-2.4L378.1,570.3z M372.3,570.8c2,0,3.4-0.5,4.3-1.6
		s1.3-2.8,1.3-5.2v-0.6c0-2.7-0.5-4.7-1.4-5.8s-2.4-1.7-4.4-1.7c-1.7,0-3,0.7-3.9,2s-1.4,3.2-1.4,5.6c0,2.5,0.5,4.3,1.4,5.6
		S370.5,570.8,372.3,570.8z"/>
	<path class="st37" d="M395.2,573.3c-2.8,0-5.1-0.9-6.7-2.6s-2.5-4.1-2.5-7.2c0-3.1,0.8-5.6,2.3-7.4s3.6-2.7,6.2-2.7
		c2.4,0,4.3,0.8,5.7,2.4s2.1,3.7,2.1,6.3v1.8H389c0.1,2.3,0.6,4,1.7,5.2s2.6,1.8,4.6,1.8c2.1,0,4.1-0.4,6.2-1.3v2.6
		c-1,0.4-2,0.8-2.9,1S396.5,573.3,395.2,573.3z M394.4,555.8c-1.5,0-2.8,0.5-3.7,1.5s-1.5,2.4-1.6,4.2h10.1c0-1.8-0.4-3.2-1.2-4.2
		S395.9,555.8,394.4,555.8z"/>
	<path class="st37" d="M417,547.2l-9.6,25.7h-2.9l9.6-25.7H417z"/>
</g>
<g>
	<path class="st25" d="M106.2,339.9v56h-8v-25H66.1v25h-8v-56h8V364h32.2v-24.1H106.2z"/>
	<path class="st25" d="M160.1,377.3h-34.4c0.5,3.7,2.1,6.7,4.9,9c2.8,2.3,6.3,3.4,10.4,3.4c5.1,0,9.1-1.7,12.2-5.1l4.2,5
		c-1.9,2.2-4.3,3.9-7.2,5.1c-2.9,1.2-6,1.8-9.6,1.8c-4.5,0-8.5-0.9-11.9-2.8c-3.5-1.8-6.1-4.4-8-7.7c-1.9-3.3-2.8-7-2.8-11.2
		c0-4.1,0.9-7.8,2.8-11.1c1.8-3.3,4.4-5.9,7.6-7.7c3.2-1.8,6.9-2.8,10.9-2.8c4.1,0,7.7,0.9,10.8,2.8c3.2,1.8,5.7,4.4,7.4,7.7
		c1.8,3.3,2.7,7.1,2.7,11.4C160.2,375.6,160.2,376.3,160.1,377.3z M130,363c-2.5,2.2-3.9,5.2-4.4,8.8h27.2c-0.4-3.6-1.9-6.5-4.4-8.8
		c-2.5-2.3-5.6-3.4-9.2-3.4C135.6,359.6,132.5,360.7,130,363z"/>
	<path class="st25" d="M207.6,353.5L187,400.2c-1.8,4.3-3.9,7.4-6.4,9.1c-2.4,1.8-5.3,2.6-8.8,2.6c-2.1,0-4.1-0.3-6-1
		c-1.9-0.7-3.6-1.6-4.8-2.9l3.3-5.8c2.2,2.1,4.7,3.1,7.6,3.1c1.9,0,3.4-0.5,4.7-1.5c1.3-1,2.4-2.7,3.4-5.1l1.4-3l-18.7-42.3h8
		l14.8,33.9l14.6-33.9H207.6z"/>
	<path class="st25" d="M217.8,387c1,1,1.5,2.3,1.5,3.9c0,0.8-0.1,1.6-0.3,2.3c-0.2,0.7-0.5,1.9-1.1,3.4l-3.8,11.1h-5l3-11.9
		c-1-0.4-1.8-1-2.4-1.9c-0.6-0.9-0.9-1.9-0.9-3.1c0-1.6,0.5-2.9,1.5-3.9c1-1,2.3-1.5,3.8-1.5C215.6,385.5,216.8,386,217.8,387z"/>
	<path class="st25" d="M317.5,357.8c3.1,3.1,4.7,7.7,4.7,13.8v24.4h-7.7v-23.5c0-4.1-0.9-7.2-2.8-9.3c-1.9-2.1-4.6-3.1-8.1-3.1
		c-3.9,0-7,1.2-9.3,3.6c-2.3,2.4-3.4,5.9-3.4,10.4v21.8h-7.7v-23.5c0-4.1-0.9-7.2-2.8-9.3c-1.9-2.1-4.6-3.1-8.1-3.1
		c-3.9,0-7,1.2-9.3,3.6c-2.3,2.4-3.4,5.9-3.4,10.4v21.8h-7.7v-42.4h7.4v6.3c1.5-2.2,3.6-3.9,6.1-5c2.5-1.1,5.4-1.7,8.6-1.7
		c3.3,0,6.2,0.7,8.8,2c2.6,1.3,4.5,3.3,5.9,5.8c1.6-2.5,3.8-4.4,6.7-5.8c2.9-1.4,6.1-2.1,9.6-2.1
		C310.2,353.1,314.4,354.7,317.5,357.8z"/>
	<path class="st25" d="M373.1,353.5l-20.6,46.6c-1.8,4.3-3.9,7.4-6.4,9.1c-2.4,1.8-5.3,2.6-8.8,2.6c-2.1,0-4.1-0.3-6-1
		c-1.9-0.7-3.6-1.6-4.8-2.9l3.3-5.8c2.2,2.1,4.7,3.1,7.6,3.1c1.9,0,3.4-0.5,4.7-1.5c1.3-1,2.4-2.7,3.4-5.1l1.4-3l-18.7-42.3h8
		l14.8,33.9l14.6-33.9H373.1z"/>
	<path class="st25" d="M437.3,357.8c3.2,3.1,4.8,7.7,4.8,13.7v24.4h-7.7v-23.5c0-4.1-1-7.2-3-9.3c-2-2.1-4.8-3.1-8.5-3.1
		c-4.2,0-7.4,1.2-9.8,3.6s-3.6,5.9-3.6,10.4v21.8h-7.7v-42.4h7.4v6.4c1.5-2.2,3.6-3.9,6.3-5c2.6-1.2,5.6-1.8,9-1.8
		C429.8,353.1,434.1,354.7,437.3,357.8z"/>
	<path class="st25" d="M485.2,357.5c3.1,2.9,4.7,7.2,4.7,12.9v25.6h-7.3v-5.6c-1.3,2-3.1,3.5-5.5,4.5c-2.4,1-5.2,1.6-8.4,1.6
		c-4.7,0-8.5-1.1-11.4-3.4c-2.9-2.3-4.3-5.3-4.3-9c0-3.7,1.4-6.7,4.1-9c2.7-2.3,7-3.4,13-3.4h12.2V370c0-3.3-1-5.8-2.9-7.6
		c-1.9-1.8-4.7-2.6-8.5-2.6c-2.5,0-5,0.4-7.4,1.2c-2.4,0.8-4.4,1.9-6.1,3.3l-3.2-5.8c2.2-1.8,4.8-3.1,7.8-4c3-0.9,6.3-1.4,9.7-1.4
		C477.6,353.1,482.1,354.6,485.2,357.5z M477.6,388.5c2.1-1.3,3.7-3.2,4.6-5.6v-5.9h-11.8c-6.5,0-9.8,2.2-9.8,6.6
		c0,2.1,0.8,3.8,2.5,5c1.7,1.2,3.9,1.8,6.9,1.8C472.9,390.5,475.4,389.8,477.6,388.5z"/>
	<path class="st25" d="M569.9,357.8c3.1,3.1,4.7,7.7,4.7,13.8v24.4h-7.7v-23.5c0-4.1-0.9-7.2-2.8-9.3c-1.9-2.1-4.6-3.1-8.1-3.1
		c-3.9,0-7,1.2-9.3,3.6c-2.3,2.4-3.4,5.9-3.4,10.4v21.8h-7.7v-23.5c0-4.1-0.9-7.2-2.8-9.3c-1.9-2.1-4.6-3.1-8.1-3.1
		c-3.9,0-7,1.2-9.3,3.6c-2.3,2.4-3.4,5.9-3.4,10.4v21.8h-7.7v-42.4h7.4v6.3c1.5-2.2,3.6-3.9,6.1-5c2.5-1.1,5.4-1.7,8.6-1.7
		c3.3,0,6.2,0.7,8.8,2c2.6,1.3,4.5,3.3,5.9,5.8c1.6-2.5,3.8-4.4,6.7-5.8c2.9-1.4,6.1-2.1,9.6-2.1
		C562.5,353.1,566.7,354.7,569.9,357.8z"/>
	<path class="st25" d="M627.1,377.3h-34.4c0.5,3.7,2.1,6.7,4.9,9c2.8,2.3,6.3,3.4,10.4,3.4c5.1,0,9.1-1.7,12.2-5.1l4.2,5
		c-1.9,2.2-4.3,3.9-7.2,5.1c-2.9,1.2-6,1.8-9.6,1.8c-4.5,0-8.5-0.9-11.9-2.8c-3.5-1.8-6.1-4.4-8-7.7c-1.9-3.3-2.8-7-2.8-11.2
		c0-4.1,0.9-7.8,2.8-11.1s4.4-5.9,7.6-7.7c3.2-1.8,6.9-2.8,10.9-2.8c4.1,0,7.7,0.9,10.8,2.8c3.2,1.8,5.7,4.4,7.4,7.7
		c1.8,3.3,2.7,7.1,2.7,11.4C627.3,375.6,627.2,376.3,627.1,377.3z M597.1,363c-2.5,2.2-3.9,5.2-4.4,8.8h27.2
		c-0.4-3.6-1.9-6.5-4.4-8.8c-2.5-2.3-5.6-3.4-9.2-3.4C602.6,359.6,599.5,360.7,597.1,363z"/>
	<path class="st25" d="M57.1,443.9c-1-1-1.5-2.1-1.5-3.5c0-1.4,0.5-2.6,1.5-3.6c1-1,2.2-1.5,3.7-1.5c1.5,0,2.7,0.5,3.7,1.4
		c1,0.9,1.5,2.1,1.5,3.5c0,1.4-0.5,2.7-1.5,3.6c-1,1-2.2,1.5-3.7,1.5C59.3,445.4,58,444.9,57.1,443.9z M56.9,453.5h7.7v42.4h-7.7
		V453.5z"/>
	<path class="st25" d="M81.4,495c-3.2-0.9-5.7-2.1-7.5-3.6l3.2-6.1c1.9,1.3,4.1,2.4,6.8,3.2c2.7,0.8,5.4,1.2,8.1,1.2
		c6.7,0,10.1-1.9,10.1-5.8c0-1.3-0.5-2.3-1.4-3c-0.9-0.7-2-1.3-3.4-1.6c-1.4-0.3-3.3-0.7-5.8-1.2c-3.4-0.5-6.2-1.1-8.4-1.8
		c-2.2-0.7-4-1.9-5.6-3.5c-1.5-1.7-2.3-4-2.3-7c0-3.8,1.6-6.9,4.8-9.2c3.2-2.3,7.5-3.5,12.9-3.5c2.8,0,5.7,0.3,8.5,1
		c2.8,0.7,5.1,1.6,7,2.8l-3.3,6.1c-3.5-2.2-7.5-3.4-12.2-3.4c-3.3,0-5.7,0.5-7.4,1.6c-1.7,1.1-2.6,2.5-2.6,4.2
		c0,1.4,0.5,2.5,1.4,3.3s2.1,1.4,3.6,1.8c1.4,0.4,3.4,0.8,6,1.3c3.4,0.6,6.2,1.2,8.3,1.9c2.1,0.7,3.9,1.8,5.4,3.4
		c1.5,1.6,2.2,3.8,2.2,6.7c0,3.8-1.6,6.9-4.9,9.2c-3.3,2.3-7.7,3.4-13.4,3.4C88,496.4,84.6,495.9,81.4,495z"/>
	<path class="st38" d="M151.5,493.2c-4.6-2.5-8.2-5.9-10.9-10.3s-4-9.4-4-14.9c0-5.5,1.3-10.5,4-14.9c2.6-4.4,6.3-7.8,10.9-10.3
		c4.6-2.5,9.8-3.7,15.6-3.7c4.9,0,9.2,0.9,13.2,2.6c3.9,1.7,7.2,4.2,9.9,7.4l-8.3,7.7c-3.8-4.4-8.5-6.6-14.1-6.6
		c-3.5,0-6.6,0.8-9.3,2.3c-2.7,1.5-4.8,3.6-6.4,6.4s-2.3,5.8-2.3,9.3s0.8,6.6,2.3,9.3c1.5,2.7,3.6,4.8,6.4,6.4
		c2.7,1.5,5.8,2.3,9.3,2.3c5.6,0,10.3-2.2,14.1-6.6l8.3,7.7c-2.7,3.3-6,5.7-9.9,7.4c-3.9,1.7-8.3,2.6-13.2,2.6
		C161.3,496.9,156.2,495.7,151.5,493.2z"/>
	<path class="st38" d="M237.1,457.1c3.3,3.2,4.9,7.9,4.9,14.2v24.6h-12.5v-22.7c0-3.4-0.7-6-2.2-7.6c-1.5-1.7-3.7-2.5-6.5-2.5
		c-3.1,0-5.7,1-7.5,2.9c-1.9,1.9-2.8,4.8-2.8,8.7v21.3H198v-59.4h12.5v20.8c1.7-1.7,3.7-2.9,6-3.8c2.3-0.9,4.9-1.3,7.7-1.3
		C229.5,452.3,233.8,453.9,237.1,457.1z"/>
	<path class="st38" d="M271.2,453.9c2.5-1.1,5.5-1.6,8.8-1.6v11.5c-1.4-0.1-2.3-0.2-2.8-0.2c-3.6,0-6.4,1-8.4,3c-2,2-3,5-3,9v20.3
		h-12.5v-43h11.9v5.7C266.7,456.5,268.7,454.9,271.2,453.9z"/>
	<path class="st38" d="M288.1,444.9c-1.4-1.3-2.2-3-2.2-5c0-2,0.7-3.6,2.2-5s3.3-2,5.6-2c2.3,0,4.2,0.6,5.6,1.9s2.2,2.9,2.2,4.8
		c0,2.1-0.7,3.8-2.2,5.2c-1.4,1.4-3.3,2-5.6,2C291.4,446.9,289.5,446.2,288.1,444.9z M287.4,452.9h12.5v43h-12.5V452.9z"/>
	<path class="st38" d="M315.5,495.3c-3.4-0.9-6.1-2-8.2-3.3l4.2-9c1.9,1.2,4.2,2.2,7,3c2.7,0.8,5.4,1.2,8,1.2c5.3,0,7.9-1.3,7.9-3.9
		c0-1.2-0.7-2.1-2.2-2.6c-1.4-0.5-3.7-1-6.6-1.4c-3.5-0.5-6.4-1.1-8.7-1.8c-2.3-0.7-4.3-1.9-6-3.7c-1.7-1.8-2.5-4.3-2.5-7.5
		c0-2.7,0.8-5.1,2.4-7.2c1.6-2.1,3.9-3.7,6.9-4.9c3-1.2,6.6-1.8,10.7-1.8c3,0,6.1,0.3,9.1,1c3,0.7,5.5,1.6,7.5,2.8l-4.2,8.9
		c-3.8-2.1-7.9-3.2-12.4-3.2c-2.7,0-4.7,0.4-6,1.1c-1.3,0.7-2,1.7-2,2.9c0,1.3,0.7,2.3,2.2,2.8c1.4,0.5,3.7,1,6.9,1.5
		c3.5,0.6,6.4,1.2,8.6,1.9c2.2,0.7,4.2,1.9,5.8,3.6c1.7,1.8,2.5,4.2,2.5,7.4c0,2.7-0.8,5-2.4,7.1c-1.6,2.1-3.9,3.7-7,4.8
		c-3.1,1.1-6.7,1.7-10.9,1.7C322.4,496.6,318.9,496.1,315.5,495.3z"/>
	<path class="st38" d="M381.7,493.9c-1.2,0.9-2.7,1.6-4.5,2c-1.8,0.5-3.7,0.7-5.6,0.7c-5.1,0-9.1-1.3-11.9-3.9
		c-2.8-2.6-4.2-6.5-4.2-11.5v-17.7h-6.6v-9.6h6.6v-10.5H368v10.5h10.7v9.6H368V481c0,1.8,0.5,3.2,1.4,4.2c0.9,1,2.3,1.5,4,1.5
		c2,0,3.7-0.5,5-1.6L381.7,493.9z"/>
	<path class="st38" d="M395.7,493.7c-3.6-1.9-6.4-4.5-8.4-7.9c-2-3.4-3-7.2-3-11.4s1-8.1,3-11.4c2-3.4,4.8-6,8.4-7.9
		c3.6-1.9,7.7-2.8,12.2-2.8c4.5,0,8.6,0.9,12.2,2.8c3.6,1.9,6.4,4.5,8.4,7.9c2,3.4,3,7.2,3,11.4s-1,8.1-3,11.4c-2,3.4-4.8,6-8.4,7.9
		c-3.6,1.9-7.6,2.8-12.2,2.8C403.4,496.6,399.3,495.6,395.7,493.7z M415.8,483.1c2.1-2.2,3.1-5.1,3.1-8.7s-1-6.5-3.1-8.7
		c-2.1-2.2-4.7-3.2-7.9-3.2c-3.2,0-5.8,1.1-7.9,3.2c-2.1,2.2-3.1,5.1-3.1,8.7s1,6.5,3.1,8.7c2.1,2.2,4.7,3.2,7.9,3.2
		C411.1,486.3,413.7,485.3,415.8,483.1z"/>
	<path class="st38" d="M476.2,455c3.3,1.8,5.9,4.4,7.7,7.8c1.9,3.3,2.8,7.2,2.8,11.6s-0.9,8.3-2.8,11.6c-1.9,3.3-4.4,5.9-7.7,7.8
		c-3.3,1.8-6.9,2.8-10.9,2.8c-5.5,0-9.8-1.7-13-5.2v20.1h-12.5v-58.6h11.9v5c3.1-3.7,7.6-5.6,13.5-5.6
		C469.3,452.3,472.9,453.2,476.2,455z M471,483.1c2.1-2.2,3.1-5.1,3.1-8.7s-1-6.5-3.1-8.7c-2.1-2.2-4.7-3.2-7.9-3.2
		s-5.8,1.1-7.9,3.2c-2.1,2.2-3.1,5.1-3.1,8.7s1,6.5,3.1,8.7c2.1,2.2,4.7,3.2,7.9,3.2S468.9,485.3,471,483.1z"/>
	<path class="st38" d="M534.1,457.1c3.3,3.2,4.9,7.9,4.9,14.2v24.6h-12.5v-22.7c0-3.4-0.7-6-2.2-7.6c-1.5-1.7-3.7-2.5-6.5-2.5
		c-3.1,0-5.7,1-7.5,2.9c-1.9,1.9-2.8,4.8-2.8,8.7v21.3H495v-59.4h12.5v20.8c1.7-1.7,3.7-2.9,6-3.8c2.3-0.9,4.9-1.3,7.7-1.3
		C526.5,452.3,530.8,453.9,534.1,457.1z"/>
</g>
<g id="Logo">
	<g>
		<path class="st39" d="M49.6,83.8c0-2.5,0.3-4.9,0.8-7.2c0.6-2.3,1.4-4.5,2.5-6.6c1-2.1,2.2-4.1,3.7-5.8c1.4-1.7,2.9-3.3,4.6-4.6
			s3.6-2.3,5.5-3c2-0.7,4-1,6-1c2.4,0,4.3,0.5,5.6,1.5c1.3,1,2,2.4,2,4.2c0,0.7-0.1,1.4-0.3,2.1c-0.2,0.7-0.5,1.5-0.8,2.2l-1.2,2
			l-1.6,1.8c-0.9-0.1-1.7-0.6-2.4-1.3c-0.7-0.7-1.1-1.4-1.2-2.3c1.2-1,2.2-2.1,2.9-3.2c0.7-1.1,1-2.1,1-3c0-1.5-0.9-2.2-2.8-2.2
			c-0.8,0-1.6,0.1-2.5,0.4l-2.6,1.4c-0.9,0.7-1.7,1.4-2.5,2.2c-0.8,0.8-1.6,1.7-2.3,2.7c-4.8,6.9-7.2,14-7.2,21.3
			c0,2.5,0.4,4.6,1.2,6.2c0.8,1.5,1.9,2.4,3.2,2.7c1.5-0.3,3.3-1.3,5.6-2.8c2.3-1.6,4.8-3.6,7.5-6.1c0.4,0.3,0.6,0.7,0.7,1
			c-1,1.3-2.1,2.6-3.2,3.9c-1.1,1.2-2.1,2.3-3.2,3.3c-1,1-2,1.9-3,2.7c-1.1,0.7-2.1,1.3-3,1.7c-4.3,0-7.5-1.2-9.7-3.7
			C50.7,91.9,49.6,88.4,49.6,83.8z"/>
		<path class="st39" d="M84.5,95.8c-2-0.2-3.6-1.1-4.7-2.6c-1.2-1.5-1.8-3.5-1.8-5.8c0-1.4,0.2-2.8,0.7-4.3c0.4-1.5,1-3,1.7-4.4
			c0.8-1.4,1.7-2.7,2.7-4c1.1-1.2,2.2-2.3,3.4-3.2c1.9-1.4,3.7-2.1,5.4-2.1c1.1,0.6,2.1,1.8,3.2,3.7h1c1.8,0,2.7,1.6,2.7,4.8
			c0,2.2-0.3,4.3-1,6.2c-0.7,2-1.7,3.8-3,5.3c-1.3,1.6-2.8,2.9-4.5,4S86.6,95.3,84.5,95.8z M87.2,79.4L85.5,82
			c-0.5,0.9-1,1.9-1.3,2.8l-1,2.8L83,90c0,0.8,0.1,1.6,0.4,2.4c0.3,0.7,0.6,1.2,1,1.3c1.5-0.4,2.9-1.1,4.2-2
			c1.3-0.9,2.5-2.1,3.4-3.6c0.9-1.3,1.7-2.9,2.2-4.8c0.5-1.8,0.8-3.7,0.8-5.8l-0.1-2.1c-0.1-0.5-0.3-1-0.5-1.3
			c-1.5,0.4-2.9,1.1-4.1,2.1S88.1,78.3,87.2,79.4z"/>
		<path class="st39" d="M112.7,69.6c0.7,0,1.4,0.2,2.3,0.7c0.9,0.4,1.7,0.9,2.4,1.6l-0.6-4c-0.3-1.2-0.6-2.4-1.1-3.7
			c-0.5-1.3-1.2-2.8-2-4.3c-0.9-1.6-1.9-3.4-3.2-5.4c0.1-0.3,0.4-0.7,0.7-1l1.3-1.3l1.4-1l1.5-0.4c0.9,1.1,1.8,2.4,2.7,4
			c0.9,1.6,1.6,3.3,2.3,5.2s1.2,3.8,1.5,5.7c0.4,2,0.6,3.9,0.6,5.7c0,1.8-0.2,3.7-0.6,5.6c-0.5,1.9-1,3.7-1.7,5.6
			c-0.7,1.8-1.5,3.5-2.4,5.1c-0.9,1.7-1.9,3.1-3,4.4s-2.3,2.4-3.5,3.1c-1.2,0.9-2.4,1.4-3.5,1.6c-2.4-0.3-4.2-1-5.5-2.3
			c-1.3-1.3-2-3.1-2-5.3c0-1.1,0.2-2.4,0.6-3.8c0.4-1.3,0.9-2.7,1.5-4.1c0.6-1.4,1.3-2.7,2.1-4c0.8-1.3,1.7-2.5,2.6-3.6
			c0.9-1,1.9-1.9,2.8-2.6C110.8,70.4,111.8,69.9,112.7,69.6L112.7,69.6z M107.4,94.7c1.2-0.4,2.4-1.3,3.6-2.8c1.2-1.3,2.3-3,3.3-5
			c0.9-1.9,1.7-4,2.3-6.2c0.7-2.2,1-4.3,1-6.3v-1.1l-0.1-0.4c-0.9,0.3-1.8,0.9-2.7,1.7c-0.9,0.9-1.9,1.9-2.8,3
			c-0.9,1-1.8,2.2-2.6,3.5c-0.9,1.3-1.6,2.5-2.3,3.8c-0.7,1.3-1.2,2.6-1.5,3.7c-0.4,1.2-0.6,2.2-0.6,3.1
			C105,93.4,105.8,94.4,107.4,94.7z"/>
		<path class="st39" d="M142.5,72.4c-0.2,2.2-0.6,4.1-1.2,5.6c-0.7,1.5-1.6,2.9-2.7,4c-1.1,1.2-2.5,2.3-4.2,3.2
			c-1.7,0.9-3.6,1.8-5.8,2.7v2.7c0.1,0.5,0.2,1,0.4,1.4l0.7,1c0.3,0.3,0.7,0.4,1.2,0.4c0.9,0,1.9-0.2,2.8-0.6c0.9-0.5,1.7-1,2.5-1.6
			c0.9-0.6,1.6-1.3,2.3-2l2-1.9l0.8,0.9c-1.5,2.1-3.2,3.8-5.1,5.2c-1.9,1.3-3.6,2.2-5.3,2.6c-2.4-0.3-4.3-1.1-5.6-2.6
			c-1.3-1.5-2-3.3-2-5.4c0-1.3,0.2-2.8,0.6-4.3s1-2.9,1.7-4.3c0.7-1.3,1.5-2.6,2.5-3.8c0.9-1.3,1.9-2.3,3-3.2
			c1.1-0.9,2.3-1.6,3.4-2.1c1.2-0.5,2.4-0.8,3.5-0.8c1.6,0.2,3.1,1.2,4.5,3V72.4z M138.9,74.2c-0.9,0.1-1.9,0.5-3,1.1
			c-1,0.7-1.9,1.5-2.8,2.5c-0.9,1.1-1.7,2.3-2.4,3.6c-0.7,1.4-1.2,2.9-1.7,4.5c2.8-1.3,5.1-3,6.9-5.1
			C137.8,78.8,138.8,76.6,138.9,74.2z"/>
		<path class="st39" d="M141,111.2c-0.5-0.1-0.7-0.7-0.8-1.6l-0.3-1.6v-2.1c0-0.7,0.1-1.7,0.3-3l1-4.3l1.6-5.2l2.1-5.6l2.4-6.2
			l1.8-4.6l1.1-3.2l0.7-2l0.7-1.6l1-1.8l1-1.7l1-1.2c1.3,0.1,2.4,0.5,3.5,1c1.1,0.4,1.7,0.8,2,1.2c-0.5,0.5-1,1.2-1.7,2.1
			s-1.3,2-1.8,3.1c-0.6,1.1-1.1,2.3-1.6,3.5l-1.1,3.1l1.3-2l2.6-2.8c1.3-1.3,2.5-2.3,3.6-3c1.1-0.7,2.1-1,3-1c1.3,0,2.4,0.3,3.2,1
			c0.9,0.7,1.3,1.7,1.3,2.8c0,2.5-0.4,5-1.3,7.4c-0.8,2.5-2,4.7-3.6,6.7c-0.5,0.7-1.2,1.4-2,2.1l-2.5,1.9c-0.9,0.5-1.7,1-2.6,1.3
			c-0.8,0.3-1.5,0.4-2.2,0.4s-1.2-0.1-1.7-0.4c-0.5-0.2-0.8-0.5-1-1c1.4-0.7,2.7-1.8,4-3.3c1.3-1.3,2.5-3,3.6-4.9
			c1.1-1.8,2-3.8,2.8-6c0.9-2.1,1.5-4.3,1.9-6.5c-1.3,0.7-2.5,1.4-3.6,2.2c-1,0.9-2,1.9-3.1,3.2l-3,3.7l-1.8,2.4
			c-0.5,0.7-0.8,1.3-1.1,1.9l-1,2l-1.7,4.5l-2,6l-2,7.3l-2,7.6c-0.3-0.1-0.7-0.3-1-0.8l-0.5-0.7C141.5,111.5,141,111.2,141,111.2z"
			/>
		<path class="st39" d="M184.9,92.8c-0.7-0.5-1.1-1.2-1.3-2c-0.3-0.9-0.4-1.6-0.4-2.2c0-0.7,0.1-1.3,0.3-1.9c-0.1,0-0.5,0.3-1,0.9
			l-1.5,2c-0.6,0.7-1.2,1.4-1.7,2.2l-1.3,1.6l-1.3,1.1c-0.4,0.3-0.7,0.5-1,0.5c-0.5,0-1-0.1-1.7-0.3c-0.6-0.2-1.2-0.5-1.7-0.8
			c-0.5-0.4-1-0.8-1.4-1.3c-0.4-0.5-0.7-1-0.8-1.6l0.1-2.4c0-0.7,0.1-1.3,0.3-2c0.3-1.3,0.8-2.8,1.4-4.5l2.1-5
			c0.8-1.6,1.7-3.1,2.7-4.5c1-1.3,2-2.4,3.1-3.3l1.1,0.1c0.5,0,0.9,0.1,1.3,0.3l1.3,0.5l1,0.7l-2.4,3.5c-1.3,2-2.7,4.8-4.2,8.5
			l-0.7,1.7l-0.7,2.3l-0.6,2.3l-0.2,1.9l0.1,0.6l0.3,0.3c0.5-0.2,1.1-0.8,2-1.7l3.3-4.3l1.2-1.7l1.4-2l1.4-2.2l1-2.3l0.6-1.5
			l0.8-1.8c0.3-0.7,0.7-1.3,1.2-1.9c0.4-0.7,0.9-1.3,1.5-1.8L192,71l1.4,0.4l1.3,0.5l0.7,0.6c-0.6,1.5-1.3,3-2,4.5l-2.2,4.4
			c-0.7,1.5-1.2,2.9-1.6,4.3c-0.5,1.4-0.7,2.8-0.7,4.2c0,0.7,0.1,1.3,0.2,1.9l0.4,1.3l0.3,1l0.2,0.5v0.2h-0.2l-1-0.1l-1.2-0.5
			l-1.4-0.6C186.2,93.6,184.9,92.8,184.9,92.8z"/>
		<path class="st39" d="M204.9,68.7c0.9,0.3,1.7,1,2.5,1.9s1.4,1.9,1.8,3c-0.4,0.9-1,2.1-1.8,3.4l-2.4,4l-2.2,4c-0.7,1.2-1,2.2-1,3
			l1.8-2l2-2.4l1.8-2.1l1.3-1.5l2.3-2.4c0.9-0.9,1.8-1.8,2.8-2.6c1-0.8,2-1.5,3-2c1-0.7,1.9-1,2.8-1s1.6,0.3,2.2,1
			c0.7,0.6,1.2,1.2,1.5,1.9l-0.4,0.3c-0.3,0.1-0.6,0.5-1.1,1c-0.5,0.7-1.1,1.5-1.7,2.6l-1.8,3.5c-0.5,1.3-1,2.6-1.4,3.9
			c-0.3,1.3-0.5,2.5-0.5,3.6c0,0.9,0.1,1.4,0.3,1.6c0.2,0.3,0.5,0.4,1,0.4c0.3,0,0.7-0.1,1.1-0.3l1-0.2c0.1,0,0.3,0.1,0.4,0.4
			l0.1,0.6l-1,0.7l-1.2,0.7l-1.2,0.5l-1,0.2c-1.1,0-1.9-0.1-2.5-0.4c-0.7-0.3-1.2-0.7-1.5-1.2c-0.4-0.5-0.7-1-0.8-1.7
			c-0.1-0.7-0.2-1.4-0.2-2.2v-1.3l0.5-1.8l0.9-2.6l1.5-3.5l-1.5,0.7c-0.9,0.5-1.8,1.2-2.8,2.2c-1.6,1.6-3.1,3.2-4.4,4.7
			c-1.3,1.5-2.7,3.2-4,5c-0.7,1.1-1.3,2.1-2,2.8c-0.5,0.7-1,1.2-1.4,1.5c-0.7-0.5-1.3-1.1-1.6-1.8c-0.4-0.7-0.7-1.4-0.8-2.3
			c0-0.7,0.1-1.5,0.3-2.5l0.8-3.3l1.2-4l1.6-4c1.3-3,2.5-5.4,3.6-7.1C203.9,69.9,204.5,68.9,204.9,68.7L204.9,68.7z"/>
		<path class="st39" d="M224.6,89.1c0-1.3,0.3-3,1-5.2c0.7-2.2,1.5-4.6,2.5-7.3l3.5-8.2c1.3-2.8,2.7-5.4,4-7.8
			c1.3-2.5,2.6-4.6,3.9-6.3c1.2-1.8,2.2-3,3.1-3.6c0.5,0,1,0.2,1.6,0.6l1.6,1.4c0.5,0.5,0.9,1.1,1.2,1.7c0.3,0.6,0.5,1.1,0.5,1.6
			c-1.5,1.3-3.1,2.9-4.8,4.8c-1.6,2-3.1,4.2-4.6,6.5c-1.5,2.3-2.8,4.8-4,7.4c-1.2,2.7-2.2,5.2-3,7.7c1.1-1.9,2.2-3.6,3.4-5.2
			c1.2-1.5,2.4-2.9,3.6-4c1.3-1.1,2.5-1.9,3.6-2.6c1.1-0.6,2.2-0.9,3.3-1c1.5,1.2,2.3,2.7,2.3,4.5c0,1.1-0.2,2.3-0.7,3.4
			s-1.1,2.1-1.8,3c-0.7,1-1.6,1.8-2.5,2.5c-1,0.7-2,1.1-3,1.4c0.3,1.2,0.8,2.4,1.3,3.6c0.5,1.3,1.2,2.6,2,3.7
			c0.7,1.2,1.5,2.3,2.5,3.3c0.9,1,2,1.8,3.2,2.5c-0.1,0.3-0.4,0.7-0.8,1c-0.3,0.4-0.7,0.7-1.2,1l-1.6,0.6c-0.5,0.1-1.1,0.2-1.7,0.2
			c-0.9,0-1.8-0.5-2.6-1.4s-1.5-2.3-2.2-4c-0.5-1.5-1-3.2-1.5-5.1c-0.5-2-1-4.1-1.3-6.2l1.8-1.4l2.3-2.1c3.1-2.9,4.6-5.5,4.6-7.7
			c0-0.3-0.2-0.4-0.6-0.4c-0.7,0-1.5,0.3-2.5,1c-0.9,0.7-1.9,1.5-3,2.6c-1,1.1-2.1,2.5-3.2,4c-1.1,1.4-2.1,3-3.1,4.8l-1.2,2.3
			l-0.9,2.8l-0.6,2.9l-0.2,2.6c0,0.5,0.1,0.8,0.2,1.1c-1.1-0.1-1.7-0.3-2-0.8l-0.7-1l-0.6-0.6c-0.3-0.3-0.6-0.8-0.8-1.6
			C224.7,91.3,224.6,90.3,224.6,89.1z"/>
		<path class="st39" d="M255.7,74.1h-3l-0.4-1.4l-0.2-1.7l2.6,0.2l2.3,0.1c0.5-1.1,1-2.1,1.6-3.1l1.8-2.8l1.6-2.2
			c0.5-0.6,0.9-1,1.2-1.1l1.3,0.2l1.7,0.4l1.5,0.6l1,0.7c-1.1,1.3-2.1,2.5-2.8,3.6l-2.4,3.9h2.1l2.2-0.2l0.4,0.6
			c0.1,0.3,0.2,0.6,0.2,0.9c-1.7,0.6-3.8,0.9-6.2,1c-0.9,1.7-1.6,3.3-2.3,5l-1.8,4.7c-0.5,1.5-0.8,3-1,4.3c-0.3,1.3-0.5,2.6-0.5,3.7
			c0,1.5,0.6,2.4,1.8,2.5c1-0.1,2-0.4,3-0.8c0.9-0.3,1.7-0.8,2.4-1.4l0.4,0.8l-1,1l-1.7,1.3l-1.7,1l-1.3,0.5c-0.9,0-1.7-0.2-2.6-0.6
			c-0.9-0.3-1.6-0.8-2.3-1.3s-1.3-1.1-1.8-1.8c-0.5-0.7-0.7-1.3-0.7-1.9c0-0.8,0.1-1.8,0.4-3.1c0.2-1.3,0.5-2.6,1-4.1l1.4-4.7
			C254.4,77.2,255,75.6,255.7,74.1z"/>
	</g>
</g>
</svg>
